<svg id="graphic" xmlns="http://www.w3.org/2000/svg" xmlns:xlink="http://www.w3.org/1999/xlink" viewBox="0 0 1633.89 791.29"><defs><style>.cls-1,.cls-5,.cls-6{fill:none;}.cls-2{fill:#f2f2f2;}.cls-3{fill-opacity:0;}.cls-4{clip-path:url(#clip-path);}.cls-5{stroke:#c4c4c4;}.cls-5,.cls-6{stroke-width:2px;}.cls-6{stroke:#eee;stroke-linecap:square;}.cls-7{fill:#4d4c4c;}.cls-10,.cls-8{isolation:isolate;}.cls-9{clip-path:url(#clip-path-2);}.cls-10{fill:#5ca2b0;opacity:0.9;}</style><clipPath id="clip-path"><rect class="cls-1" x="164.85" y="165.11" width="1397.1" height="462.67"/></clipPath><clipPath id="clip-path-2"><rect class="cls-1" x="69.33" y="142.81" width="1505.02" height="531.81"/></clipPath></defs><rect class="cls-2" width="1633.89" height="791.29"/><rect class="cls-1" x="166.85" y="167.11" width="1393.1" height="458.67"/><rect class="cls-3" x="166.85" y="167.11" width="1393.1" height="458.67"/><g class="cls-4"><line class="cls-5" x1="166.85" y1="625.78" x2="1559.95" y2="625.78"/><line class="cls-5" x1="166.85" y1="564.62" x2="1559.95" y2="564.62"/><line class="cls-5" x1="166.85" y1="503.47" x2="1559.95" y2="503.47"/><line class="cls-5" x1="166.85" y1="442.31" x2="1559.95" y2="442.31"/><line class="cls-5" x1="166.85" y1="381.16" x2="1559.95" y2="381.16"/><line class="cls-5" x1="166.85" y1="320" x2="1559.95" y2="320"/><line class="cls-5" x1="166.85" y1="258.84" x2="1559.95" y2="258.84"/><line class="cls-5" x1="166.85" y1="197.69" x2="1559.95" y2="197.69"/></g><line class="cls-6" x1="166.85" y1="625.78" x2="1559.95" y2="625.78"/><line class="cls-7" x1="306.16" y1="625.78" x2="306.16" y2="635.38"/><g class="cls-8"><g class="cls-8"><path class="cls-7" d="M285,670.28a17.11,17.11,0,0,0-.23-3.84,5.27,5.27,0,0,0-1.35-2.82,3.26,3.26,0,0,0-2-1,2.67,2.67,0,0,0-2.07.95,2.79,2.79,0,0,0-.93,2.2,3.72,3.72,0,0,0,1.08,2.28l-1.3,1.31a5,5,0,0,1-1.56-3.58,5.43,5.43,0,0,1,4.82-4.94,4.34,4.34,0,0,1,3.23,1.44,6.28,6.28,0,0,1,1.66,3.13,15,15,0,0,1,.38,3.72c0,1.21-.15,2.69-.34,4.45l5.11-5.11,1.13,1.13-7.14,7.14-1-1C284.82,673.46,285,671.64,285,670.28Z"/><path class="cls-7" d="M285.72,657.81a5.18,5.18,0,0,1,5.81-5.81,14.26,14.26,0,0,1,8,8,5.14,5.14,0,0,1-5.8,5.8,14.26,14.26,0,0,1-8-8Zm6.93-3.33a3.86,3.86,0,0,0-2.14-.75,3.37,3.37,0,0,0-3.06,3.06,3.86,3.86,0,0,0,.75,2.14,16.1,16.1,0,0,0,2,2.36,17.35,17.35,0,0,0,2.41,2.07,3.88,3.88,0,0,0,2.15.76,3.4,3.4,0,0,0,3.06-3.06,3.9,3.9,0,0,0-.76-2.15,18,18,0,0,0-2.07-2.42A16.59,16.59,0,0,0,292.65,654.48Z"/><path class="cls-7" d="M302.9,652.42a16.54,16.54,0,0,0-.23-3.84,5.06,5.06,0,0,0-1.35-2.82,3.27,3.27,0,0,0-2-1.06,2.65,2.65,0,0,0-2.06,1,2.76,2.76,0,0,0-.94,2.19,3.68,3.68,0,0,0,1.09,2.29l-1.31,1.31a5.06,5.06,0,0,1-1.56-3.58,5.41,5.41,0,0,1,4.82-4.94,4.33,4.33,0,0,1,3.23,1.43,6.24,6.24,0,0,1,1.66,3.14,14.43,14.43,0,0,1,.38,3.72c0,1.21-.15,2.69-.33,4.44l5.11-5.1,1.12,1.12-7.14,7.15-1-1C302.68,655.59,302.84,653.78,302.9,652.42Z"/><path class="cls-7" d="M303.59,640a5.16,5.16,0,0,1,5.8-5.81,11.27,11.27,0,0,1,4.82,3.15,11.61,11.61,0,0,1,3.21,4.88,5.16,5.16,0,0,1-5.81,5.8,11.4,11.4,0,0,1-4.87-3.21A11.25,11.25,0,0,1,303.59,640Zm6.92-3.34a4,4,0,0,0-2.14-.75,3.4,3.4,0,0,0-3.06,3.06,3.89,3.89,0,0,0,.75,2.15,16.74,16.74,0,0,0,2,2.36,17.35,17.35,0,0,0,2.41,2.07,4,4,0,0,0,2.16.76,2.9,2.9,0,0,0,2.08-1,2.84,2.84,0,0,0,1-2.07A3.92,3.92,0,0,0,315,641a18,18,0,0,0-2.07-2.41A17.45,17.45,0,0,0,310.51,636.61Z"/></g></g><line class="cls-7" x1="584.78" y1="625.78" x2="584.78" y2="635.38"/><g class="cls-8"><g class="cls-8"><path class="cls-7" d="M563.66,670.28a17.11,17.11,0,0,0-.23-3.84,5.27,5.27,0,0,0-1.35-2.82,3.28,3.28,0,0,0-2-1,2.65,2.65,0,0,0-2.07.95,2.79,2.79,0,0,0-.93,2.2,3.72,3.72,0,0,0,1.08,2.28l-1.3,1.31a5,5,0,0,1-1.56-3.58,5.43,5.43,0,0,1,4.82-4.94,4.31,4.31,0,0,1,3.22,1.44,6.22,6.22,0,0,1,1.67,3.13,15.47,15.47,0,0,1,.38,3.72c0,1.21-.15,2.69-.34,4.45l5.11-5.11,1.13,1.13-7.14,7.14-1-1C563.44,673.46,563.59,671.64,563.66,670.28Z"/><path class="cls-7" d="M564.34,657.81a5.18,5.18,0,0,1,5.81-5.81,14.26,14.26,0,0,1,8,8,5.14,5.14,0,0,1-5.8,5.8,11.4,11.4,0,0,1-4.87-3.2A11.27,11.27,0,0,1,564.34,657.81Zm6.93-3.33a3.86,3.86,0,0,0-2.15-.75,3.38,3.38,0,0,0-3,3.06,3.92,3.92,0,0,0,.74,2.14,20.28,20.28,0,0,0,4.44,4.43,3.88,3.88,0,0,0,2.15.76,3.4,3.4,0,0,0,3.06-3.06,4,4,0,0,0-.76-2.15,18,18,0,0,0-2.07-2.42A16.59,16.59,0,0,0,571.27,654.48Z"/><path class="cls-7" d="M572.44,649.63l-1.23-1.23,2.79-2.79,10.74,10.74-1.37,1.36-9.5-9.5Z"/><path class="cls-7" d="M587.91,650a3.11,3.11,0,0,0,1.92-1,2.79,2.79,0,0,0,.85-2.79,9.18,9.18,0,0,0-2.69-3.81,3.18,3.18,0,0,1,0,2.09,5,5,0,0,1-1.24,2,5.28,5.28,0,0,1-2.19,1.36,4.15,4.15,0,0,1-2.42,0,5.38,5.38,0,0,1-2.34-1.45,5,5,0,0,1-1.64-3.48,4.82,4.82,0,0,1,1.64-3.59,4.46,4.46,0,0,1,4.27-1.57,11,11,0,0,1,4.86,3.19,16.35,16.35,0,0,1,2.75,3.42,4.86,4.86,0,0,1,.73,3,4.75,4.75,0,0,1-1.53,2.82,4.61,4.61,0,0,1-3.18,1.54,4.55,4.55,0,0,1-3.05-1.11l1.25-1.25A3,3,0,0,0,587.91,650Zm-1.06-7.13a3.13,3.13,0,0,0-1-2.31,3.63,3.63,0,0,0-2.42-1.17,3.18,3.18,0,0,0-2.43,1.07,3.06,3.06,0,0,0-1,2.31,3.47,3.47,0,0,0,1.11,2.34,3.4,3.4,0,0,0,2.35,1.12,3.26,3.26,0,0,0,2.42-1.11A3.16,3.16,0,0,0,586.85,642.9Z"/></g></g><line class="cls-7" x1="863.4" y1="625.78" x2="863.4" y2="635.38"/><g class="cls-8"><g class="cls-8"><path class="cls-7" d="M842.28,670.28a17.11,17.11,0,0,0-.23-3.84,5.27,5.27,0,0,0-1.35-2.82,3.28,3.28,0,0,0-2-1,2.65,2.65,0,0,0-2.07.95,2.79,2.79,0,0,0-.93,2.2,3.72,3.72,0,0,0,1.08,2.28l-1.3,1.31a5.06,5.06,0,0,1-1.57-3.58,5.46,5.46,0,0,1,4.82-4.94,4.31,4.31,0,0,1,3.23,1.44,6.22,6.22,0,0,1,1.67,3.13,15.47,15.47,0,0,1,.38,3.72c0,1.21-.15,2.69-.34,4.45l5.11-5.11,1.13,1.13-7.14,7.14-1-1C842.06,673.46,842.21,671.64,842.28,670.28Z"/><path class="cls-7" d="M843,657.81a5.18,5.18,0,0,1,5.81-5.81,14.26,14.26,0,0,1,8,8,5.14,5.14,0,0,1-5.8,5.8,11.4,11.4,0,0,1-4.87-3.2A11.27,11.27,0,0,1,843,657.81Zm6.93-3.33a3.89,3.89,0,0,0-2.15-.75,2.82,2.82,0,0,0-2.07,1,2.91,2.91,0,0,0-1,2.09,4,4,0,0,0,.75,2.14,20.28,20.28,0,0,0,4.44,4.43,3.88,3.88,0,0,0,2.15.76,3.4,3.4,0,0,0,3.06-3.06,4,4,0,0,0-.76-2.15,18,18,0,0,0-2.07-2.42A16.59,16.59,0,0,0,849.89,654.48Z"/><path class="cls-7" d="M851.06,649.63l-1.23-1.23,2.79-2.79,10.74,10.74L862,657.71l-9.5-9.5Z"/><path class="cls-7" d="M859.82,646.81a3.59,3.59,0,0,1-2-1.07,3.73,3.73,0,0,1-.87-4.06,6.23,6.23,0,0,1,1.54-2.31,6.32,6.32,0,0,1,2.3-1.54,3.94,3.94,0,0,1,2.23-.18,3.78,3.78,0,0,1,1.85,1,3.51,3.51,0,0,1,1.05,2,3.75,3.75,0,0,1-.3,2.22,4,4,0,0,1,2.45-.48,3.85,3.85,0,0,1,2.24,1.16,4.24,4.24,0,0,1,1.21,2.16,4.38,4.38,0,0,1-.23,2.46,7.37,7.37,0,0,1-4,4,4.29,4.29,0,0,1-2.44.21,4.13,4.13,0,0,1-2.16-1.21,3.88,3.88,0,0,1-1.18-2.24,3.84,3.84,0,0,1,.48-2.43A4,4,0,0,1,859.82,646.81Zm2-7.45a4.16,4.16,0,0,0-3.25,3.25,2.44,2.44,0,0,0,.82,2,2.33,2.33,0,0,0,1.95.72,4,4,0,0,0,3.2-3.22,2.34,2.34,0,0,0-.73-2A2.42,2.42,0,0,0,861.78,639.36Zm1.38,8.23a2.51,2.51,0,0,0,.83,2.24,2.71,2.71,0,0,0,2.21.85,4.43,4.43,0,0,0,3.63-3.63,2.74,2.74,0,0,0-.86-2.2,2.58,2.58,0,0,0-2.21-.84,4.1,4.1,0,0,0-2.32,1.27A4.22,4.22,0,0,0,863.16,647.59Z"/></g></g><line class="cls-7" x1="1142.02" y1="625.78" x2="1142.02" y2="635.38"/><g class="cls-8"><g class="cls-8"><path class="cls-7" d="M1120.9,670.28a17.11,17.11,0,0,0-.23-3.84,5.27,5.27,0,0,0-1.35-2.82,3.28,3.28,0,0,0-2-1,2.65,2.65,0,0,0-2.07.95,2.79,2.79,0,0,0-.93,2.2,3.72,3.72,0,0,0,1.08,2.28l-1.31,1.31a5,5,0,0,1-1.56-3.58,5.46,5.46,0,0,1,4.82-4.94,4.33,4.33,0,0,1,3.23,1.44,6.3,6.3,0,0,1,1.67,3.13,15.47,15.47,0,0,1,.38,3.72c0,1.21-.15,2.69-.34,4.45l5.11-5.11,1.13,1.13-7.14,7.14-1-1C1120.68,673.46,1120.83,671.64,1120.9,670.28Z"/><path class="cls-7" d="M1121.58,657.81a5.18,5.18,0,0,1,5.81-5.81,14.26,14.26,0,0,1,8,8,5.14,5.14,0,0,1-5.8,5.8,11.4,11.4,0,0,1-4.87-3.2A11.27,11.27,0,0,1,1121.58,657.81Zm6.93-3.33a3.89,3.89,0,0,0-2.15-.75,2.82,2.82,0,0,0-2.07,1,2.91,2.91,0,0,0-1,2.09,4,4,0,0,0,.75,2.14,20.28,20.28,0,0,0,4.44,4.43,3.88,3.88,0,0,0,2.15.76,3.4,3.4,0,0,0,3.06-3.06,4,4,0,0,0-.76-2.15,18,18,0,0,0-2.07-2.42A16.59,16.59,0,0,0,1128.51,654.48Z"/><path class="cls-7" d="M1129.68,649.63l-1.23-1.23,2.79-2.79L1142,656.35l-1.37,1.36-9.5-9.5Z"/><path class="cls-7" d="M1141.22,637.74l5.55,13.81-1.37,1.37-5.35-13.74-5.74,5.73-1.16-1.16,7-7Z"/></g></g><line class="cls-7" x1="1420.64" y1="625.78" x2="1420.64" y2="635.38"/><g class="cls-8"><g class="cls-8"><path class="cls-7" d="M1399.52,670.28a17.71,17.71,0,0,0-.23-3.84,5.2,5.2,0,0,0-1.36-2.82,3.23,3.23,0,0,0-2-1,2.64,2.64,0,0,0-2.07.95,2.79,2.79,0,0,0-.93,2.2A3.66,3.66,0,0,0,1394,668l-1.31,1.31a5,5,0,0,1-1.56-3.58,5.46,5.46,0,0,1,4.82-4.94,4.33,4.33,0,0,1,3.23,1.44,6.3,6.3,0,0,1,1.67,3.13,15,15,0,0,1,.37,3.72c0,1.21-.14,2.69-.33,4.45l5.11-5.11,1.13,1.13-7.15,7.14-1-1C1399.3,673.46,1399.45,671.64,1399.52,670.28Z"/><path class="cls-7" d="M1400.2,657.81A5.18,5.18,0,0,1,1406,652a14.32,14.32,0,0,1,8,8,5.14,5.14,0,0,1-5.8,5.8,11.48,11.48,0,0,1-4.88-3.2A11.33,11.33,0,0,1,1400.2,657.81Zm6.93-3.33a3.89,3.89,0,0,0-2.15-.75,2.82,2.82,0,0,0-2.07,1,2.91,2.91,0,0,0-1,2.09,4,4,0,0,0,.75,2.14,17.43,17.43,0,0,0,2,2.36,18,18,0,0,0,2.41,2.07,3.93,3.93,0,0,0,2.16.76,3.42,3.42,0,0,0,3.06-3.06,4,4,0,0,0-.76-2.15,18,18,0,0,0-2.07-2.42A16.59,16.59,0,0,0,1407.13,654.48Z"/><path class="cls-7" d="M1408.3,649.63l-1.23-1.23,2.79-2.79,10.73,10.74-1.36,1.36-9.51-9.5Z"/><path class="cls-7" d="M1417,640.25a3.1,3.1,0,0,0-1,3,9.06,9.06,0,0,0,2.71,4,3.56,3.56,0,0,1-.07-2.35,5.12,5.12,0,0,1,1.34-2.21,4.54,4.54,0,0,1,3.39-1.49,5.11,5.11,0,0,1,3.54,1.71,5.8,5.8,0,0,1,1.42,2.21,4.29,4.29,0,0,1,.09,2.46A5.27,5.27,0,0,1,1427,650a5.34,5.34,0,0,1-3.07,1.71,5.07,5.07,0,0,1-3.09-.68,15.53,15.53,0,0,1-3.31-2.63q-5.46-5.45-1.65-9.25a4.3,4.3,0,0,1,6-.49l-1.25,1.24A2.63,2.63,0,0,0,1417,640.25Zm2.93,5.31a3.07,3.07,0,0,0-.12,1.7,3.24,3.24,0,0,0,.93,1.63,3.61,3.61,0,0,0,2.49,1.18,3.44,3.44,0,0,0,2.58-1.16,3.09,3.09,0,0,0,1-2.3,3.46,3.46,0,0,0-1.13-2.37,3.69,3.69,0,0,0-2.42-1.22,3.12,3.12,0,0,0-2.39,1.08A4,4,0,0,0,1420,645.56Z"/></g></g><line class="cls-6" x1="166.85" y1="167.11" x2="166.85" y2="625.78"/><line class="cls-7" x1="166.85" y1="625.78" x2="157.25" y2="625.78"/><g class="cls-8"><g class="cls-8"><path class="cls-7" d="M144.56,618.09a5.18,5.18,0,0,1,8.21,0,11.33,11.33,0,0,1,1.18,5.64,11.54,11.54,0,0,1-1.18,5.71,5.15,5.15,0,0,1-8.21,0,11.54,11.54,0,0,1-1.18-5.71A11.33,11.33,0,0,1,144.56,618.09Zm7.26,2.54a4,4,0,0,0-1-2,3.39,3.39,0,0,0-4.33,0,4,4,0,0,0-1,2,16.11,16.11,0,0,0-.25,3.1,16.6,16.6,0,0,0,.25,3.17,4,4,0,0,0,1,2.06,3.39,3.39,0,0,0,4.33,0,4.07,4.07,0,0,0,1-2.06,17.57,17.57,0,0,0,.24-3.17A17,17,0,0,0,151.82,620.63Z"/></g></g><line class="cls-7" x1="166.85" y1="320" x2="157.25" y2="320"/><g class="cls-8"><g class="cls-8"><path class="cls-7" d="M59.94,312.26v-1.74h4V325.7H62V312.26Z"/><path class="cls-7" d="M69.45,323.06l-2.35,5.65H65.82l1.53-5.65Z"/><path class="cls-7" d="M72.5,312.31a4.34,4.34,0,0,1,4.11-2,4.34,4.34,0,0,1,4.1,2A11.39,11.39,0,0,1,81.88,318a11.59,11.59,0,0,1-1.17,5.72,4.35,4.35,0,0,1-4.1,2,4.35,4.35,0,0,1-4.11-2A11.48,11.48,0,0,1,71.32,318,11.27,11.27,0,0,1,72.5,312.31Zm7.25,2.55a3.92,3.92,0,0,0-1-2.05,2.82,2.82,0,0,0-2.15-.78,2.85,2.85,0,0,0-2.17.78,3.92,3.92,0,0,0-1,2.05,16.93,16.93,0,0,0-.24,3.09,17.57,17.57,0,0,0,.24,3.17,3.91,3.91,0,0,0,1,2.06,2.85,2.85,0,0,0,2.17.78,2.82,2.82,0,0,0,2.15-.78,3.91,3.91,0,0,0,1-2.06A17.57,17.57,0,0,0,80,318,16.93,16.93,0,0,0,79.75,314.86Z"/><path class="cls-7" d="M85.68,312.31a5.18,5.18,0,0,1,8.21,0A11.27,11.27,0,0,1,95.07,318a11.48,11.48,0,0,1-1.18,5.72,5.17,5.17,0,0,1-8.21,0A11.59,11.59,0,0,1,84.51,318,11.39,11.39,0,0,1,85.68,312.31Zm7.26,2.55a3.92,3.92,0,0,0-1-2.05,3.38,3.38,0,0,0-4.32,0,3.92,3.92,0,0,0-1,2.05A16.93,16.93,0,0,0,86.4,318a17.57,17.57,0,0,0,.24,3.17,3.91,3.91,0,0,0,1,2.06,3.38,3.38,0,0,0,4.32,0,3.91,3.91,0,0,0,1-2.06,17.57,17.57,0,0,0,.24-3.17A16.93,16.93,0,0,0,92.94,314.86Z"/><path class="cls-7" d="M98.87,312.31a5.18,5.18,0,0,1,8.21,0,11.27,11.27,0,0,1,1.18,5.64,11.48,11.48,0,0,1-1.18,5.72,5.17,5.17,0,0,1-8.21,0A11.59,11.59,0,0,1,97.69,318,11.38,11.38,0,0,1,98.87,312.31Zm7.26,2.55a3.92,3.92,0,0,0-1-2.05,3.39,3.39,0,0,0-4.33,0,4,4,0,0,0-1,2.05,16.83,16.83,0,0,0-.25,3.09,17.46,17.46,0,0,0,.25,3.17,4,4,0,0,0,1,2.06,3.39,3.39,0,0,0,4.33,0,3.91,3.91,0,0,0,1-2.06,17.57,17.57,0,0,0,.24-3.17A16.93,16.93,0,0,0,106.13,314.86Z"/><path class="cls-7" d="M113.17,323.06l-2.35,5.65h-1.28l1.53-5.65Z"/><path class="cls-7" d="M116.22,312.31a5.18,5.18,0,0,1,8.21,0A11.39,11.39,0,0,1,125.6,318a11.59,11.59,0,0,1-1.17,5.72,5.17,5.17,0,0,1-8.21,0A11.48,11.48,0,0,1,115,318,11.27,11.27,0,0,1,116.22,312.31Zm7.25,2.55a4,4,0,0,0-1-2.05,3.39,3.39,0,0,0-4.33,0,3.92,3.92,0,0,0-1,2.05,16.93,16.93,0,0,0-.24,3.09,17.57,17.57,0,0,0,.24,3.17,3.91,3.91,0,0,0,1,2.06,3.39,3.39,0,0,0,4.33,0,4,4,0,0,0,1-2.06,17.57,17.57,0,0,0,.24-3.17A16.93,16.93,0,0,0,123.47,314.86Z"/><path class="cls-7" d="M129.4,312.31a5.19,5.19,0,0,1,8.22,0,11.39,11.39,0,0,1,1.17,5.64,11.59,11.59,0,0,1-1.17,5.72,5.18,5.18,0,0,1-8.22,0,11.59,11.59,0,0,1-1.17-5.72A11.39,11.39,0,0,1,129.4,312.31Zm7.26,2.55a3.92,3.92,0,0,0-1-2.05,2.82,2.82,0,0,0-2.15-.78,2.85,2.85,0,0,0-2.17.78,3.92,3.92,0,0,0-1,2.05,16.93,16.93,0,0,0-.24,3.09,17.57,17.57,0,0,0,.24,3.17,3.91,3.91,0,0,0,1,2.06,2.85,2.85,0,0,0,2.17.78,2.82,2.82,0,0,0,2.15-.78,3.91,3.91,0,0,0,1-2.06,17.57,17.57,0,0,0,.24-3.17A16.93,16.93,0,0,0,136.66,314.86Z"/><path class="cls-7" d="M142.59,312.31a5.18,5.18,0,0,1,8.21,0A11.27,11.27,0,0,1,152,318a11.48,11.48,0,0,1-1.18,5.72,5.17,5.17,0,0,1-8.21,0,11.59,11.59,0,0,1-1.17-5.72A11.39,11.39,0,0,1,142.59,312.31Zm7.26,2.55a3.92,3.92,0,0,0-1-2.05,2.83,2.83,0,0,0-2.15-.78,2.89,2.89,0,0,0-2.18.78,4,4,0,0,0-1,2.05,16.93,16.93,0,0,0-.24,3.09,17.57,17.57,0,0,0,.24,3.17,4,4,0,0,0,1,2.06,2.89,2.89,0,0,0,2.18.78,2.83,2.83,0,0,0,2.15-.78,3.91,3.91,0,0,0,1-2.06,17.57,17.57,0,0,0,.24-3.17A16.93,16.93,0,0,0,149.85,314.86Z"/></g></g><line class="cls-7" x1="166.85" y1="381.16" x2="157.25" y2="381.16"/><g class="cls-8"><g class="cls-8"><path class="cls-7" d="M82.14,377.62a3.59,3.59,0,0,1-.63-2.14,3.79,3.79,0,0,1,.57-2.05A3.91,3.91,0,0,1,83.77,372a7.12,7.12,0,0,1,5.44,0,3.94,3.94,0,0,1,1.7,1.45,3.71,3.71,0,0,1,.58,2.05,3.61,3.61,0,0,1-.65,2.13A3.82,3.82,0,0,1,89.05,379a4,4,0,0,1,2.07,1.4,3.81,3.81,0,0,1,.77,2.4,4.24,4.24,0,0,1-.68,2.39,4.3,4.3,0,0,1-1.9,1.57,6.76,6.76,0,0,1-2.82.56,6.63,6.63,0,0,1-2.8-.56,4.3,4.3,0,0,1-1.88-1.57,4.24,4.24,0,0,1-.68-2.39,3.92,3.92,0,0,1,.76-2.41A3.81,3.81,0,0,1,84,379,3.87,3.87,0,0,1,82.14,377.62ZM84,380.53a2.5,2.5,0,0,0-1,2.17,2.68,2.68,0,0,0,1,2.16,4.42,4.42,0,0,0,5.13,0,2.71,2.71,0,0,0,1-2.16,2.55,2.55,0,0,0-1-2.15,4,4,0,0,0-2.54-.75A4.13,4.13,0,0,0,84,380.53Zm4.85-6.8a3.54,3.54,0,0,0-2.31-.69,3.5,3.5,0,0,0-2.29.69,2.44,2.44,0,0,0-.84,2,2.33,2.33,0,0,0,.87,1.89,4,4,0,0,0,4.54,0,2.37,2.37,0,0,0,.87-1.9A2.42,2.42,0,0,0,88.8,373.73Z"/><path class="cls-7" d="M95.6,373.47a4.37,4.37,0,0,1,4.12-2,4.32,4.32,0,0,1,4.09,2,11.22,11.22,0,0,1,1.18,5.64,11.43,11.43,0,0,1-1.18,5.71,4.31,4.31,0,0,1-4.09,2,4.36,4.36,0,0,1-4.12-2,11.55,11.55,0,0,1-1.17-5.71A11.34,11.34,0,0,1,95.6,373.47Zm7.26,2.54a3.92,3.92,0,0,0-1-2.05,2.85,2.85,0,0,0-2.15-.77,2.89,2.89,0,0,0-2.17.77,3.92,3.92,0,0,0-1,2.05,17,17,0,0,0-.24,3.1,17.57,17.57,0,0,0,.24,3.17,4,4,0,0,0,1,2.06,2.85,2.85,0,0,0,2.17.78,2.82,2.82,0,0,0,2.15-.78,4,4,0,0,0,1-2.06,17.57,17.57,0,0,0,.24-3.17A17,17,0,0,0,102.86,376Z"/><path class="cls-7" d="M108.79,373.47a5.17,5.17,0,0,1,8.21,0,11.22,11.22,0,0,1,1.18,5.64,11.43,11.43,0,0,1-1.18,5.71,5.15,5.15,0,0,1-8.21,0,11.55,11.55,0,0,1-1.17-5.71A11.34,11.34,0,0,1,108.79,373.47Zm7.26,2.54a3.92,3.92,0,0,0-1-2.05,2.87,2.87,0,0,0-2.15-.77,2.93,2.93,0,0,0-2.18.77,4,4,0,0,0-1,2.05,17,17,0,0,0-.24,3.1,17.57,17.57,0,0,0,.24,3.17,4,4,0,0,0,1,2.06,2.89,2.89,0,0,0,2.18.78,2.83,2.83,0,0,0,2.15-.78,4,4,0,0,0,1-2.06,17.57,17.57,0,0,0,.24-3.17A17,17,0,0,0,116.05,376Z"/><path class="cls-7" d="M123.09,384.21l-2.35,5.65h-1.28l1.53-5.65Z"/><path class="cls-7" d="M126.14,373.47a5.17,5.17,0,0,1,8.21,0,11.34,11.34,0,0,1,1.17,5.64,11.55,11.55,0,0,1-1.17,5.71,5.15,5.15,0,0,1-8.21,0,11.43,11.43,0,0,1-1.18-5.71A11.22,11.22,0,0,1,126.14,373.47Zm7.25,2.54a4,4,0,0,0-1-2.05,3.43,3.43,0,0,0-4.33,0,3.92,3.92,0,0,0-1,2.05,17,17,0,0,0-.24,3.1,17.57,17.57,0,0,0,.24,3.17,4,4,0,0,0,1,2.06,3.39,3.39,0,0,0,4.33,0,4,4,0,0,0,1-2.06,17.57,17.57,0,0,0,.24-3.17A17,17,0,0,0,133.39,376Z"/><path class="cls-7" d="M139.32,373.47a5.18,5.18,0,0,1,8.22,0,11.34,11.34,0,0,1,1.17,5.64,11.55,11.55,0,0,1-1.17,5.71,5.16,5.16,0,0,1-8.22,0,11.55,11.55,0,0,1-1.17-5.71A11.34,11.34,0,0,1,139.32,373.47Zm7.26,2.54a3.92,3.92,0,0,0-1-2.05,2.85,2.85,0,0,0-2.15-.77,2.89,2.89,0,0,0-2.17.77,3.92,3.92,0,0,0-1,2.05,17,17,0,0,0-.24,3.1,17.57,17.57,0,0,0,.24,3.17,4,4,0,0,0,1,2.06,2.85,2.85,0,0,0,2.17.78,2.82,2.82,0,0,0,2.15-.78,4,4,0,0,0,1-2.06,17.57,17.57,0,0,0,.24-3.17A17,17,0,0,0,146.58,376Z"/><path class="cls-7" d="M152.51,373.47a5.17,5.17,0,0,1,8.21,0,11.22,11.22,0,0,1,1.18,5.64,11.43,11.43,0,0,1-1.18,5.71,5.15,5.15,0,0,1-8.21,0,11.55,11.55,0,0,1-1.17-5.71A11.34,11.34,0,0,1,152.51,373.47Zm7.26,2.54a3.92,3.92,0,0,0-1-2.05,3.41,3.41,0,0,0-4.32,0,3.92,3.92,0,0,0-1,2.05,17,17,0,0,0-.24,3.1,17.57,17.57,0,0,0,.24,3.17,4,4,0,0,0,1,2.06,3.38,3.38,0,0,0,4.32,0,4,4,0,0,0,1-2.06,17.57,17.57,0,0,0,.24-3.17A17,17,0,0,0,159.77,376Z"/></g></g><line class="cls-7" x1="166.85" y1="442.31" x2="157.25" y2="442.31"/><g class="cls-8"><g class="cls-8"><path class="cls-7" d="M86.76,434.11A3.1,3.1,0,0,0,84,435.55a8.93,8.93,0,0,0-.9,4.74,3.59,3.59,0,0,1,1.6-1.72,5.16,5.16,0,0,1,2.51-.62,4.57,4.57,0,0,1,3.46,1.35A5.13,5.13,0,0,1,91.93,443a5.76,5.76,0,0,1-.56,2.56,4.22,4.22,0,0,1-1.68,1.8,5.18,5.18,0,0,1-2.72.68,5.33,5.33,0,0,1-3.38-1,5,5,0,0,1-1.7-2.67,15.66,15.66,0,0,1-.48-4.2q0-7.71,5.37-7.7a4.29,4.29,0,0,1,4.62,3.92H89.64A2.64,2.64,0,0,0,86.76,434.11Zm-1.68,5.83a3.08,3.08,0,0,0-1.29,1.11,3.21,3.21,0,0,0-.49,1.82,3.68,3.68,0,0,0,.92,2.59,3.42,3.42,0,0,0,2.65,1,3.07,3.07,0,0,0,2.34-.91,3.43,3.43,0,0,0,.87-2.47,3.7,3.7,0,0,0-.84-2.57,3.12,3.12,0,0,0-2.46-.94A3.94,3.94,0,0,0,85.08,439.94Z"/><path class="cls-7" d="M95.69,434.63a5.17,5.17,0,0,1,8.21,0,11.32,11.32,0,0,1,1.17,5.63A11.59,11.59,0,0,1,103.9,446a5.17,5.17,0,0,1-8.21,0,11.48,11.48,0,0,1-1.18-5.72A11.21,11.21,0,0,1,95.69,434.63Zm7.25,2.54a4,4,0,0,0-1-2.05,3.39,3.39,0,0,0-4.33,0,3.92,3.92,0,0,0-1,2.05,16.93,16.93,0,0,0-.24,3.09,17.76,17.76,0,0,0,.24,3.18,3.88,3.88,0,0,0,1,2.05,3.39,3.39,0,0,0,4.33,0,4,4,0,0,0,1-2.05,17.76,17.76,0,0,0,.24-3.18A16.93,16.93,0,0,0,102.94,437.17Z"/><path class="cls-7" d="M108.88,434.63a5.17,5.17,0,0,1,8.21,0,11.32,11.32,0,0,1,1.17,5.63,11.59,11.59,0,0,1-1.17,5.72,5.17,5.17,0,0,1-8.21,0,11.48,11.48,0,0,1-1.18-5.72A11.21,11.21,0,0,1,108.88,434.63Zm7.25,2.54a3.92,3.92,0,0,0-1-2.05,2.82,2.82,0,0,0-2.15-.78,2.85,2.85,0,0,0-2.17.78,3.92,3.92,0,0,0-1,2.05,16.93,16.93,0,0,0-.24,3.09,17.76,17.76,0,0,0,.24,3.18,3.88,3.88,0,0,0,1,2.05,2.85,2.85,0,0,0,2.17.78,2.82,2.82,0,0,0,2.15-.78,3.88,3.88,0,0,0,1-2.05,17.76,17.76,0,0,0,.24-3.18A16.93,16.93,0,0,0,116.13,437.17Z"/><path class="cls-7" d="M123.18,445.37,120.82,451h-1.28l1.54-5.65Z"/><path class="cls-7" d="M126.22,434.63a5.17,5.17,0,0,1,8.21,0,11.21,11.21,0,0,1,1.18,5.63,11.48,11.48,0,0,1-1.18,5.72,5.17,5.17,0,0,1-8.21,0,11.59,11.59,0,0,1-1.17-5.72A11.32,11.32,0,0,1,126.22,434.63Zm7.26,2.54a3.92,3.92,0,0,0-1-2.05,2.83,2.83,0,0,0-2.15-.78,2.88,2.88,0,0,0-2.18.78,4,4,0,0,0-1,2.05,16.93,16.93,0,0,0-.24,3.09,17.76,17.76,0,0,0,.24,3.18,4,4,0,0,0,1,2.05,2.88,2.88,0,0,0,2.18.78,2.83,2.83,0,0,0,2.15-.78,3.88,3.88,0,0,0,1-2.05,17.76,17.76,0,0,0,.24-3.18A16.93,16.93,0,0,0,133.48,437.17Z"/><path class="cls-7" d="M139.41,434.63a5.17,5.17,0,0,1,8.21,0,11.31,11.31,0,0,1,1.18,5.63,11.59,11.59,0,0,1-1.18,5.72,5.17,5.17,0,0,1-8.21,0,11.48,11.48,0,0,1-1.18-5.72A11.21,11.21,0,0,1,139.41,434.63Zm7.25,2.54a4,4,0,0,0-1-2.05,3.39,3.39,0,0,0-4.33,0,4,4,0,0,0-1,2.05,16.93,16.93,0,0,0-.24,3.09,17.76,17.76,0,0,0,.24,3.18,4,4,0,0,0,1,2.05,3.39,3.39,0,0,0,4.33,0,4,4,0,0,0,1-2.05,17.66,17.66,0,0,0,.25-3.18A16.83,16.83,0,0,0,146.66,437.17Z"/><path class="cls-7" d="M152.6,434.63a5.17,5.17,0,0,1,8.21,0,11.32,11.32,0,0,1,1.17,5.63,11.59,11.59,0,0,1-1.17,5.72,5.17,5.17,0,0,1-8.21,0,11.48,11.48,0,0,1-1.18-5.72A11.21,11.21,0,0,1,152.6,434.63Zm7.25,2.54a4,4,0,0,0-1-2.05,3.39,3.39,0,0,0-4.33,0,3.92,3.92,0,0,0-1,2.05,16.93,16.93,0,0,0-.24,3.09,17.76,17.76,0,0,0,.24,3.18,3.88,3.88,0,0,0,1,2.05,3.39,3.39,0,0,0,4.33,0,4,4,0,0,0,1-2.05,17.76,17.76,0,0,0,.24-3.18A16.93,16.93,0,0,0,159.85,437.17Z"/></g></g><line class="cls-7" x1="166.85" y1="503.47" x2="157.25" y2="503.47"/><g class="cls-8"><g class="cls-8"><path class="cls-7" d="M80.71,505.79v-1.45l7.38-10.21h2.28v10h2.1v1.66h-2.1v3.38H88.48v-3.38Zm7.86-9.66-5.65,8h5.65Z"/><path class="cls-7" d="M95.56,495.78a5.17,5.17,0,0,1,8.21,0,11.22,11.22,0,0,1,1.18,5.64,11.43,11.43,0,0,1-1.18,5.71,5.15,5.15,0,0,1-8.21,0,11.55,11.55,0,0,1-1.17-5.71A11.34,11.34,0,0,1,95.56,495.78Zm7.26,2.54a3.88,3.88,0,0,0-1-2,2.83,2.83,0,0,0-2.15-.78,2.89,2.89,0,0,0-2.18.78,4,4,0,0,0-1,2,17,17,0,0,0-.24,3.1,17.57,17.57,0,0,0,.24,3.17,4,4,0,0,0,1,2.06,2.89,2.89,0,0,0,2.18.78,2.83,2.83,0,0,0,2.15-.78,3.91,3.91,0,0,0,1-2.06,17.57,17.57,0,0,0,.24-3.17A17,17,0,0,0,102.82,498.32Z"/><path class="cls-7" d="M108.75,495.78a5.17,5.17,0,0,1,8.21,0,11.33,11.33,0,0,1,1.18,5.64,11.54,11.54,0,0,1-1.18,5.71,5.15,5.15,0,0,1-8.21,0,11.54,11.54,0,0,1-1.18-5.71A11.33,11.33,0,0,1,108.75,495.78Zm7.26,2.54a4,4,0,0,0-1-2,3.39,3.39,0,0,0-4.33,0,4,4,0,0,0-1,2,16.11,16.11,0,0,0-.25,3.1,16.6,16.6,0,0,0,.25,3.17,4,4,0,0,0,1,2.06,3.39,3.39,0,0,0,4.33,0,4.07,4.07,0,0,0,1-2.06,17.57,17.57,0,0,0,.24-3.17A17,17,0,0,0,116,498.32Z"/><path class="cls-7" d="M123.05,506.52l-2.35,5.65h-1.28l1.53-5.65Z"/><path class="cls-7" d="M126.1,495.78a5.17,5.17,0,0,1,8.21,0,11.34,11.34,0,0,1,1.17,5.64,11.55,11.55,0,0,1-1.17,5.71,5.15,5.15,0,0,1-8.21,0,11.43,11.43,0,0,1-1.18-5.71A11.22,11.22,0,0,1,126.1,495.78Zm7.25,2.54a3.88,3.88,0,0,0-1-2,2.82,2.82,0,0,0-2.15-.78,2.85,2.85,0,0,0-2.17.78,3.88,3.88,0,0,0-1,2,17,17,0,0,0-.24,3.1,17.57,17.57,0,0,0,.24,3.17,3.91,3.91,0,0,0,1,2.06,2.85,2.85,0,0,0,2.17.78,2.82,2.82,0,0,0,2.15-.78,3.91,3.91,0,0,0,1-2.06,17.57,17.57,0,0,0,.24-3.17A17,17,0,0,0,133.35,498.32Z"/><path class="cls-7" d="M139.28,495.78a5.17,5.17,0,0,1,8.21,0,11.22,11.22,0,0,1,1.18,5.64,11.43,11.43,0,0,1-1.18,5.71,5.15,5.15,0,0,1-8.21,0,11.55,11.55,0,0,1-1.17-5.71A11.34,11.34,0,0,1,139.28,495.78Zm7.26,2.54a3.88,3.88,0,0,0-1-2,3.38,3.38,0,0,0-4.32,0,3.88,3.88,0,0,0-1,2,17,17,0,0,0-.24,3.1,17.57,17.57,0,0,0,.24,3.17,3.91,3.91,0,0,0,1,2.06,3.38,3.38,0,0,0,4.32,0,3.91,3.91,0,0,0,1-2.06,17.57,17.57,0,0,0,.24-3.17A17,17,0,0,0,146.54,498.32Z"/><path class="cls-7" d="M152.47,495.78a5.17,5.17,0,0,1,8.21,0,11.22,11.22,0,0,1,1.18,5.64,11.43,11.43,0,0,1-1.18,5.71,5.15,5.15,0,0,1-8.21,0,11.54,11.54,0,0,1-1.18-5.71A11.33,11.33,0,0,1,152.47,495.78Zm7.26,2.54a3.88,3.88,0,0,0-1-2,3.39,3.39,0,0,0-4.33,0,4,4,0,0,0-1,2,17,17,0,0,0-.25,3.1,17.46,17.46,0,0,0,.25,3.17,4,4,0,0,0,1,2.06,3.39,3.39,0,0,0,4.33,0,3.91,3.91,0,0,0,1-2.06,17.57,17.57,0,0,0,.24-3.17A17,17,0,0,0,159.73,498.32Z"/></g></g><line class="cls-7" x1="166.85" y1="564.62" x2="157.25" y2="564.62"/><g class="cls-8"><g class="cls-8"><path class="cls-7" d="M85.12,565.27a17,17,0,0,0,2.56-2.87,5.22,5.22,0,0,0,1-2.95,3.23,3.23,0,0,0-.67-2.16,2.64,2.64,0,0,0-2.13-.78,2.77,2.77,0,0,0-2.21.89,3.67,3.67,0,0,0-.85,2.38H81a5,5,0,0,1,1.43-3.63,5.42,5.42,0,0,1,6.9-.08,4.31,4.31,0,0,1,1.27,3.29,6.28,6.28,0,0,1-1,3.39,14.76,14.76,0,0,1-2.37,2.9q-1.32,1.25-3.38,2.91h7.23v1.6H81v-1.37C82.72,567.36,84.12,566.19,85.12,565.27Z"/><path class="cls-7" d="M94.43,556.94a5.17,5.17,0,0,1,8.21,0,11.34,11.34,0,0,1,1.17,5.64,11.55,11.55,0,0,1-1.17,5.71,5.17,5.17,0,0,1-8.21,0,11.43,11.43,0,0,1-1.18-5.71A11.22,11.22,0,0,1,94.43,556.94Zm7.25,2.54a4,4,0,0,0-1-2.05,3.39,3.39,0,0,0-4.33,0,3.92,3.92,0,0,0-1,2.05,17,17,0,0,0-.24,3.1,17.72,17.72,0,0,0,.24,3.17,3.88,3.88,0,0,0,1,2,3.39,3.39,0,0,0,4.33,0,4,4,0,0,0,1-2,17.72,17.72,0,0,0,.24-3.17A17,17,0,0,0,101.68,559.48Z"/><path class="cls-7" d="M107.62,556.94a5.17,5.17,0,0,1,8.21,0,11.34,11.34,0,0,1,1.17,5.64,11.55,11.55,0,0,1-1.17,5.71,5.17,5.17,0,0,1-8.21,0,11.43,11.43,0,0,1-1.18-5.71A11.22,11.22,0,0,1,107.62,556.94Zm7.25,2.54a3.92,3.92,0,0,0-1-2.05,2.82,2.82,0,0,0-2.15-.78,2.85,2.85,0,0,0-2.17.78,3.92,3.92,0,0,0-1,2.05,17,17,0,0,0-.24,3.1,17.72,17.72,0,0,0,.24,3.17,3.88,3.88,0,0,0,1,2,2.85,2.85,0,0,0,2.17.78,2.82,2.82,0,0,0,2.15-.78,3.88,3.88,0,0,0,1-2,17.72,17.72,0,0,0,.24-3.17A17,17,0,0,0,114.87,559.48Z"/><path class="cls-7" d="M121.92,567.68l-2.36,5.65h-1.28l1.54-5.65Z"/><path class="cls-7" d="M125,556.94a5.17,5.17,0,0,1,8.21,0,11.22,11.22,0,0,1,1.18,5.64,11.43,11.43,0,0,1-1.18,5.71,5.17,5.17,0,0,1-8.21,0,11.54,11.54,0,0,1-1.18-5.71A11.33,11.33,0,0,1,125,556.94Zm7.26,2.54a3.92,3.92,0,0,0-1-2.05,3.39,3.39,0,0,0-4.33,0,4,4,0,0,0-1,2.05,17,17,0,0,0-.24,3.1,17.72,17.72,0,0,0,.24,3.17,4,4,0,0,0,1,2,3.39,3.39,0,0,0,4.33,0,3.88,3.88,0,0,0,1-2,17.72,17.72,0,0,0,.24-3.17A17,17,0,0,0,132.22,559.48Z"/><path class="cls-7" d="M138.15,556.94a5.17,5.17,0,0,1,8.21,0,11.33,11.33,0,0,1,1.18,5.64,11.54,11.54,0,0,1-1.18,5.71,5.17,5.17,0,0,1-8.21,0,11.43,11.43,0,0,1-1.18-5.71A11.22,11.22,0,0,1,138.15,556.94Zm7.25,2.54a4,4,0,0,0-1-2.05,3.39,3.39,0,0,0-4.33,0,4,4,0,0,0-1,2.05,17,17,0,0,0-.24,3.1,17.72,17.72,0,0,0,.24,3.17,4,4,0,0,0,1,2,3.39,3.39,0,0,0,4.33,0,4,4,0,0,0,1-2,16.75,16.75,0,0,0,.25-3.17A16.11,16.11,0,0,0,145.4,559.48Z"/><path class="cls-7" d="M151.34,556.94a5.17,5.17,0,0,1,8.21,0,11.34,11.34,0,0,1,1.17,5.64,11.55,11.55,0,0,1-1.17,5.71,5.17,5.17,0,0,1-8.21,0,11.43,11.43,0,0,1-1.18-5.71A11.22,11.22,0,0,1,151.34,556.94Zm7.25,2.54a4,4,0,0,0-1-2.05,3.39,3.39,0,0,0-4.33,0,3.92,3.92,0,0,0-1,2.05,17,17,0,0,0-.24,3.1,17.72,17.72,0,0,0,.24,3.17,3.88,3.88,0,0,0,1,2,3.39,3.39,0,0,0,4.33,0,4,4,0,0,0,1-2,17.72,17.72,0,0,0,.24-3.17A17,17,0,0,0,158.59,559.48Z"/></g></g><line class="cls-7" x1="166.85" y1="197.69" x2="157.25" y2="197.69"/><g class="cls-8"><g class="cls-8"><path class="cls-7" d="M59.94,190v-1.74h4v15.18H62V190Z"/><path class="cls-7" d="M69.45,200.75l-2.35,5.64H65.82l1.53-5.64Z"/><path class="cls-7" d="M70.86,200v-1.45l7.37-10.2h2.29v10h2.1V200h-2.1v3.38H78.63V200Zm7.85-9.66-5.65,8h5.65Z"/><path class="cls-7" d="M85.7,190a5.19,5.19,0,0,1,8.22,0,11.36,11.36,0,0,1,1.17,5.64,11.53,11.53,0,0,1-1.17,5.71,5.16,5.16,0,0,1-8.22,0,11.53,11.53,0,0,1-1.17-5.71A11.36,11.36,0,0,1,85.7,190ZM93,192.55a3.92,3.92,0,0,0-1-2.05,2.82,2.82,0,0,0-2.15-.78,2.85,2.85,0,0,0-2.17.78,3.92,3.92,0,0,0-1,2.05,16.93,16.93,0,0,0-.24,3.09,17.57,17.57,0,0,0,.24,3.17,3.91,3.91,0,0,0,1,2.06,2.85,2.85,0,0,0,2.17.78,2.82,2.82,0,0,0,2.15-.78,3.91,3.91,0,0,0,1-2.06,17.57,17.57,0,0,0,.24-3.17A16.93,16.93,0,0,0,93,192.55Z"/><path class="cls-7" d="M98.89,190a5.18,5.18,0,0,1,8.21,0,11.25,11.25,0,0,1,1.18,5.64,11.41,11.41,0,0,1-1.18,5.71,5.15,5.15,0,0,1-8.21,0,11.53,11.53,0,0,1-1.17-5.71A11.36,11.36,0,0,1,98.89,190Zm7.26,2.55a3.92,3.92,0,0,0-1-2.05,2.83,2.83,0,0,0-2.15-.78,2.89,2.89,0,0,0-2.18.78,4,4,0,0,0-1,2.05,16.93,16.93,0,0,0-.24,3.09,17.57,17.57,0,0,0,.24,3.17,4,4,0,0,0,1,2.06,2.89,2.89,0,0,0,2.18.78,2.83,2.83,0,0,0,2.15-.78,3.91,3.91,0,0,0,1-2.06,17.57,17.57,0,0,0,.24-3.17A16.93,16.93,0,0,0,106.15,192.55Z"/><path class="cls-7" d="M113.19,200.75l-2.35,5.64h-1.28l1.53-5.64Z"/><path class="cls-7" d="M116.24,190a5.18,5.18,0,0,1,8.21,0,11.36,11.36,0,0,1,1.17,5.64,11.53,11.53,0,0,1-1.17,5.71,5.15,5.15,0,0,1-8.21,0,11.41,11.41,0,0,1-1.18-5.71A11.25,11.25,0,0,1,116.24,190Zm7.25,2.55a4,4,0,0,0-1-2.05,3.39,3.39,0,0,0-4.33,0,3.92,3.92,0,0,0-1,2.05,16.93,16.93,0,0,0-.24,3.09,17.57,17.57,0,0,0,.24,3.17,3.91,3.91,0,0,0,1,2.06,3.39,3.39,0,0,0,4.33,0,4,4,0,0,0,1-2.06,17.57,17.57,0,0,0,.24-3.17A16.93,16.93,0,0,0,123.49,192.55Z"/><path class="cls-7" d="M129.43,190a5.18,5.18,0,0,1,8.21,0,11.36,11.36,0,0,1,1.17,5.64,11.53,11.53,0,0,1-1.17,5.71,5.15,5.15,0,0,1-8.21,0,11.41,11.41,0,0,1-1.18-5.71A11.25,11.25,0,0,1,129.43,190Zm7.25,2.55a3.92,3.92,0,0,0-1-2.05,2.82,2.82,0,0,0-2.15-.78,2.85,2.85,0,0,0-2.17.78,3.92,3.92,0,0,0-1,2.05,16.93,16.93,0,0,0-.24,3.09,17.57,17.57,0,0,0,.24,3.17,3.91,3.91,0,0,0,1,2.06,2.85,2.85,0,0,0,2.17.78,2.82,2.82,0,0,0,2.15-.78,3.91,3.91,0,0,0,1-2.06,17.57,17.57,0,0,0,.24-3.17A16.93,16.93,0,0,0,136.68,192.55Z"/><path class="cls-7" d="M142.61,190a4.37,4.37,0,0,1,4.12-2,4.32,4.32,0,0,1,4.09,2,11.25,11.25,0,0,1,1.18,5.64,11.41,11.41,0,0,1-1.18,5.71,4.31,4.31,0,0,1-4.09,2,4.36,4.36,0,0,1-4.12-2,11.53,11.53,0,0,1-1.17-5.71A11.36,11.36,0,0,1,142.61,190Zm7.26,2.55a3.92,3.92,0,0,0-1-2.05,3.38,3.38,0,0,0-4.32,0,3.92,3.92,0,0,0-1,2.05,16.93,16.93,0,0,0-.24,3.09,17.57,17.57,0,0,0,.24,3.17,3.91,3.91,0,0,0,1,2.06,3.38,3.38,0,0,0,4.32,0,3.91,3.91,0,0,0,1-2.06,17.57,17.57,0,0,0,.24-3.17A16.93,16.93,0,0,0,149.87,192.55Z"/></g></g><line class="cls-7" x1="166.85" y1="258.84" x2="157.25" y2="258.84"/><g class="cls-8"><g class="cls-8"><path class="cls-7" d="M59.94,251.11v-1.75h4v15.19H62V251.11Z"/><path class="cls-7" d="M69.45,261.9l-2.35,5.65H65.82l1.53-5.65Z"/><path class="cls-7" d="M75.27,259.5a16.9,16.9,0,0,0,2.55-2.88,5.19,5.19,0,0,0,1-3,3.23,3.23,0,0,0-.66-2.15,2.62,2.62,0,0,0-2.13-.79,2.81,2.81,0,0,0-2.22.89A3.7,3.7,0,0,0,73,254H71.15a5.07,5.07,0,0,1,1.43-3.64,5.42,5.42,0,0,1,6.9-.08,4.35,4.35,0,0,1,1.27,3.3,6.31,6.31,0,0,1-1,3.39,14.65,14.65,0,0,1-2.36,2.89c-.89.84-2,1.81-3.38,2.91h7.22v1.6H71.09V263C72.87,261.59,74.26,260.41,75.27,259.5Z"/><path class="cls-7" d="M84.57,251.16a5.17,5.17,0,0,1,8.21,0A11.33,11.33,0,0,1,94,256.8a11.54,11.54,0,0,1-1.18,5.71,5.15,5.15,0,0,1-8.21,0,11.54,11.54,0,0,1-1.18-5.71A11.33,11.33,0,0,1,84.57,251.16Zm7.26,2.54a4,4,0,0,0-1-2,3.43,3.43,0,0,0-4.33,0,4,4,0,0,0-1,2,16.11,16.11,0,0,0-.25,3.1,16.6,16.6,0,0,0,.25,3.17,4,4,0,0,0,1,2.06,3.43,3.43,0,0,0,4.33,0,4,4,0,0,0,1-2.06,17.57,17.57,0,0,0,.24-3.17A17,17,0,0,0,91.83,253.7Z"/><path class="cls-7" d="M97.76,251.16a5.17,5.17,0,0,1,8.21,0,11.33,11.33,0,0,1,1.18,5.64,11.54,11.54,0,0,1-1.18,5.71,5.15,5.15,0,0,1-8.21,0,11.43,11.43,0,0,1-1.18-5.71A11.22,11.22,0,0,1,97.76,251.16ZM105,253.7a4,4,0,0,0-1-2,3.43,3.43,0,0,0-4.33,0,3.92,3.92,0,0,0-1,2,17,17,0,0,0-.24,3.1,17.57,17.57,0,0,0,.24,3.17,4,4,0,0,0,1,2.06,3.43,3.43,0,0,0,4.33,0,4,4,0,0,0,1-2.06,17.46,17.46,0,0,0,.25-3.17A17,17,0,0,0,105,253.7Z"/><path class="cls-7" d="M112.06,261.9l-2.35,5.65h-1.28L110,261.9Z"/><path class="cls-7" d="M115.1,251.16a4.37,4.37,0,0,1,4.12-2,4.32,4.32,0,0,1,4.09,2,11.22,11.22,0,0,1,1.18,5.64,11.43,11.43,0,0,1-1.18,5.71,4.31,4.31,0,0,1-4.09,2,4.36,4.36,0,0,1-4.12-2,11.55,11.55,0,0,1-1.17-5.71A11.34,11.34,0,0,1,115.1,251.16Zm7.26,2.54a3.92,3.92,0,0,0-1-2,2.85,2.85,0,0,0-2.15-.77,2.89,2.89,0,0,0-2.17.77,3.92,3.92,0,0,0-1,2,17,17,0,0,0-.24,3.1,17.57,17.57,0,0,0,.24,3.17,4,4,0,0,0,1,2.06,2.85,2.85,0,0,0,2.17.77,2.81,2.81,0,0,0,2.15-.77,4,4,0,0,0,1-2.06,17.57,17.57,0,0,0,.24-3.17A17,17,0,0,0,122.36,253.7Z"/><path class="cls-7" d="M128.29,251.16a5.17,5.17,0,0,1,8.21,0,11.22,11.22,0,0,1,1.18,5.64,11.43,11.43,0,0,1-1.18,5.71,5.15,5.15,0,0,1-8.21,0,11.55,11.55,0,0,1-1.17-5.71A11.34,11.34,0,0,1,128.29,251.16Zm7.26,2.54a3.92,3.92,0,0,0-1-2,2.87,2.87,0,0,0-2.15-.77,2.93,2.93,0,0,0-2.18.77,4,4,0,0,0-1,2,17,17,0,0,0-.24,3.1,17.57,17.57,0,0,0,.24,3.17,4,4,0,0,0,1,2.06,2.89,2.89,0,0,0,2.18.77,2.83,2.83,0,0,0,2.15-.77,4,4,0,0,0,1-2.06,17.57,17.57,0,0,0,.24-3.17A17,17,0,0,0,135.55,253.7Z"/><path class="cls-7" d="M141.48,251.16a5.17,5.17,0,0,1,8.21,0,11.33,11.33,0,0,1,1.18,5.64,11.54,11.54,0,0,1-1.18,5.71,5.15,5.15,0,0,1-8.21,0,11.54,11.54,0,0,1-1.18-5.71A11.33,11.33,0,0,1,141.48,251.16Zm7.25,2.54a4,4,0,0,0-1-2,3.43,3.43,0,0,0-4.33,0,4,4,0,0,0-1,2,17,17,0,0,0-.24,3.1,17.57,17.57,0,0,0,.24,3.17,4,4,0,0,0,1,2.06,3.43,3.43,0,0,0,4.33,0,4,4,0,0,0,1-2.06,16.6,16.6,0,0,0,.25-3.17A16.11,16.11,0,0,0,148.73,253.7Z"/></g></g><rect class="cls-5" x="166.85" y="167.11" width="1393.1" height="458.67"/><g class="cls-9"><path id="point-0-0" class="cls-10" d="M201.68,188.24h209V625.78h-209Z"/><path id="point-0-1" class="cls-10" d="M480.3,295.18h209v330.6h-209Z"/><path id="point-0-2" class="cls-10" d="M758.92,467.09h209V625.78h-209Z"/><path id="point-0-3" class="cls-10" d="M1037.53,516.58h209v109.2h-209Z"/><path id="point-0-4" class="cls-10" d="M1316.15,533.65h209v92.13h-209Z"/></g><path d="M52.2,97.27V71.71h5v21.2h13v4.36Z"/><path d="M72.75,75.74V71h4.79v4.75Zm0,21.53V78.4h4.79V97.27Z"/><path d="M90.72,97.63a10.64,10.64,0,0,1-4.16-.77,9.07,9.07,0,0,1-3.11-2.13,9.51,9.51,0,0,1-2-3.12,9.85,9.85,0,0,1-.69-3.67A10,10,0,0,1,82,83.14a9,9,0,0,1,3.42-3.53,10.2,10.2,0,0,1,5.29-1.31,10,10,0,0,1,5.26,1.33,8.29,8.29,0,0,1,3.24,3.49L94.5,84.56A4.22,4.22,0,0,0,92.88,83a4.78,4.78,0,0,0-4.72.13A5,5,0,0,0,86.38,85a6.68,6.68,0,0,0,0,5.83,5,5,0,0,0,1.78,2,4.86,4.86,0,0,0,4.14.42,5.22,5.22,0,0,0,1.39-.81,3.46,3.46,0,0,0,.92-1.14l4.68,1.44a7.88,7.88,0,0,1-1.89,2.52A9,9,0,0,1,94.48,97,10.63,10.63,0,0,1,90.72,97.63Z"/><path d="M110.81,97.63a10.6,10.6,0,0,1-4.11-.77,9.27,9.27,0,0,1-3.13-2.1,9.39,9.39,0,0,1-2-3,9.7,9.7,0,0,1-.68-3.67,10.11,10.11,0,0,1,1.2-4.86,9.35,9.35,0,0,1,3.42-3.56,10.11,10.11,0,0,1,5.31-1.33,10,10,0,0,1,5.26,1.33,9.25,9.25,0,0,1,3.38,3.51,9.82,9.82,0,0,1,1.19,4.75,8,8,0,0,1,0,.87c0,.27,0,.51-.07.7H106a5,5,0,0,0,.81,2.51,4.77,4.77,0,0,0,1.8,1.6,5,5,0,0,0,2.32.57,5.61,5.61,0,0,0,2.75-.71,3.6,3.6,0,0,0,1.75-1.89l4.1,1.16a7.41,7.41,0,0,1-1.9,2.55,9.14,9.14,0,0,1-3,1.75A11.18,11.18,0,0,1,110.81,97.63Zm-4.94-11.2h9.87a5.56,5.56,0,0,0-.81-2.44,4.61,4.61,0,0,0-1.75-1.62,5,5,0,0,0-2.41-.58,4.83,4.83,0,0,0-2.36.58A4.63,4.63,0,0,0,106.68,84,5.56,5.56,0,0,0,105.87,86.43Z"/><path d="M141.15,97.27h-4.82V86.84a5.55,5.55,0,0,0-.77-3.27,2.64,2.64,0,0,0-2.22-1,4.35,4.35,0,0,0-2,.5,5.72,5.72,0,0,0-1.76,1.35,6.29,6.29,0,0,0-1.21,2V97.27h-4.79V78.58H128v3.49a6.85,6.85,0,0,1,1.83-2,8.9,8.9,0,0,1,2.56-1.28,10,10,0,0,1,3.1-.46,5.89,5.89,0,0,1,2.89.62,4.21,4.21,0,0,1,1.73,1.69,7.57,7.57,0,0,1,.83,2.37,14.23,14.23,0,0,1,.23,2.61Z"/><path d="M154.15,97.63a10.64,10.64,0,0,1-4.16-.77,9.07,9.07,0,0,1-3.11-2.13,9.51,9.51,0,0,1-2-3.12,9.85,9.85,0,0,1-.69-3.67,10,10,0,0,1,1.19-4.8,9,9,0,0,1,3.42-3.53,10.2,10.2,0,0,1,5.29-1.31,9.93,9.93,0,0,1,5.26,1.33,8.29,8.29,0,0,1,3.24,3.49l-4.68,1.44a4.22,4.22,0,0,0-1.62-1.6,4.78,4.78,0,0,0-4.72.13A5.08,5.08,0,0,0,149.81,85a6.77,6.77,0,0,0,0,5.83,5.12,5.12,0,0,0,1.78,2,4.86,4.86,0,0,0,4.14.42,5.22,5.22,0,0,0,1.39-.81,3.33,3.33,0,0,0,.92-1.14l4.68,1.44a7.6,7.6,0,0,1-1.89,2.52A9,9,0,0,1,157.91,97,10.59,10.59,0,0,1,154.15,97.63Z"/><path d="M165.67,75.74V71h4.79v4.75Zm0,21.53V78.4h4.79V97.27Z"/><path d="M173.55,91.76a5.12,5.12,0,0,1,1-3.17,6.74,6.74,0,0,1,2.84-2.11,10.86,10.86,0,0,1,4.23-.77,16.63,16.63,0,0,1,2.42.18,8.06,8.06,0,0,1,2.12.58v-1a3.48,3.48,0,0,0-1-2.69,4.57,4.57,0,0,0-3.14-.95,8.21,8.21,0,0,0-3,.54,15.7,15.7,0,0,0-3,1.55l-1.51-3.14a13.55,13.55,0,0,1,7.92-2.44,9.18,9.18,0,0,1,6.28,2A7.15,7.15,0,0,1,191,86v5.93a1.63,1.63,0,0,0,.27,1.06,1.26,1.26,0,0,0,.89.39v3.93l-1.17.18a3.45,3.45,0,0,1-.89,0,3.25,3.25,0,0,1-2.17-.63,2.49,2.49,0,0,1-.89-1.56l-.1-1a9,9,0,0,1-6.84,3.31,7.18,7.18,0,0,1-3.37-.78,6,6,0,0,1-2.34-2.12A5.47,5.47,0,0,1,173.55,91.76Zm11.74.9a3,3,0,0,0,.65-.81,1.63,1.63,0,0,0,.25-.77V89.22a10.45,10.45,0,0,0-1.87-.54,10.09,10.09,0,0,0-1.91-.2,5.59,5.59,0,0,0-3.08.79,2.41,2.41,0,0,0-1.2,2.09,2.57,2.57,0,0,0,.39,1.35,2.81,2.81,0,0,0,1.14,1,3.82,3.82,0,0,0,1.81.39,5.51,5.51,0,0,0,2.13-.43A5.18,5.18,0,0,0,185.29,92.66Z"/><path d="M202.46,97.63a13.76,13.76,0,0,1-4.62-.79,10,10,0,0,1-3.77-2.34l1.77-3.14a12.16,12.16,0,0,0,3.27,2,8.56,8.56,0,0,0,3.17.65,4.42,4.42,0,0,0,2.25-.49,1.59,1.59,0,0,0,.85-1.46,1.31,1.31,0,0,0-.47-1.08,4,4,0,0,0-1.35-.64c-.59-.18-1.3-.39-2.14-.62a26.84,26.84,0,0,1-3.48-1.3,5.47,5.47,0,0,1-2.1-1.63,4.12,4.12,0,0,1-.72-2.51,5.3,5.3,0,0,1,.95-3.18A6.26,6.26,0,0,1,198.74,79a9.87,9.87,0,0,1,4-.74,11.55,11.55,0,0,1,3.82.63,9,9,0,0,1,3.27,2l-2,3.1a10.39,10.39,0,0,0-2.7-1.68,6.93,6.93,0,0,0-2.63-.52,5.42,5.42,0,0,0-1.42.18,2.35,2.35,0,0,0-1.08.58,1.57,1.57,0,0,0-.41,1.15,1.38,1.38,0,0,0,.38,1,3,3,0,0,0,1.15.67c.51.19,1.14.41,1.89.64a32.64,32.64,0,0,1,3.81,1.3,5.94,5.94,0,0,1,2.36,1.64,4.14,4.14,0,0,1,.81,2.7A5.12,5.12,0,0,1,208,96.07,8.88,8.88,0,0,1,202.46,97.63Z"/><path d="M243.28,97.27V80.49L236.7,93h-2.78l-6.55-12.49V97.27h-5V71.71h5.37l7.52,14.51,7.6-14.51h5.33V97.27Z"/><path d="M261.5,97.63a10.55,10.55,0,0,1-4.1-.77,9.23,9.23,0,0,1-5.12-5.14,9.89,9.89,0,0,1-.68-3.67,10,10,0,0,1,1.21-4.86,9.2,9.2,0,0,1,3.42-3.56,10.06,10.06,0,0,1,5.31-1.33,9.89,9.89,0,0,1,5.25,1.33,9.28,9.28,0,0,1,3.39,3.51,9.81,9.81,0,0,1,1.18,4.75q0,.47,0,.87c0,.27-.05.51-.07.7H256.71a5,5,0,0,0,.81,2.51,4.77,4.77,0,0,0,1.8,1.6,5,5,0,0,0,2.32.57,5.62,5.62,0,0,0,2.76-.71,3.62,3.62,0,0,0,1.74-1.89l4.11,1.16a7.44,7.44,0,0,1-1.91,2.55,9,9,0,0,1-3,1.75A11.14,11.14,0,0,1,261.5,97.63Zm-4.93-11.2h9.86a5.31,5.31,0,0,0-.81-2.44,4.51,4.51,0,0,0-1.74-1.62,5,5,0,0,0-2.41-.58,4.77,4.77,0,0,0-2.36.58A4.56,4.56,0,0,0,257.38,84,5.31,5.31,0,0,0,256.57,86.43Zm6.48-10.22-3.1-.94L261.9,71h4.46Z"/><path d="M273.16,87.94a10.91,10.91,0,0,1,1.08-4.87,8.66,8.66,0,0,1,3-3.49,7.6,7.6,0,0,1,4.36-1.28,7.1,7.1,0,0,1,3.74,1,7.27,7.27,0,0,1,2.59,2.61V71h4.86V91.87A1.78,1.78,0,0,0,293,93a1.18,1.18,0,0,0,.86.39v3.93a9.15,9.15,0,0,1-2,.21,3.22,3.22,0,0,1-2.14-.61,2.32,2.32,0,0,1-1-1.69L288.68,94a7,7,0,0,1-2.83,2.7,7.81,7.81,0,0,1-3.72.94,8.78,8.78,0,0,1-3.58-.73,8.46,8.46,0,0,1-2.85-2.07,9.68,9.68,0,0,1-1.87-3.09A10.77,10.77,0,0,1,273.16,87.94ZM288,90.38V86a5,5,0,0,0-1.15-1.84A6.24,6.24,0,0,0,285,82.88a4.4,4.4,0,0,0-4,0,5,5,0,0,0-1.56,1.23,5.36,5.36,0,0,0-1,1.79,6.51,6.51,0,0,0-.34,2.13,6,6,0,0,0,.39,2.18A5.91,5.91,0,0,0,279.64,92a4.56,4.56,0,0,0,1.66,1.17,5.37,5.37,0,0,0,2.09.4,4.15,4.15,0,0,0,1.4-.23,5.4,5.4,0,0,0,1.32-.65,5.9,5.9,0,0,0,1.13-1A3.22,3.22,0,0,0,288,90.38Z"/><path d="M297.54,75.74V71h4.78v4.75Zm0,21.53V78.4h4.78V97.27Z"/><path d="M315.5,97.63a10.64,10.64,0,0,1-4.16-.77,9.07,9.07,0,0,1-3.11-2.13,9.51,9.51,0,0,1-2-3.12,9.85,9.85,0,0,1-.69-3.67,10,10,0,0,1,1.19-4.8,9,9,0,0,1,3.42-3.53,10.2,10.2,0,0,1,5.29-1.31,9.93,9.93,0,0,1,5.26,1.33A8.29,8.29,0,0,1,324,83.12l-4.68,1.44a4.22,4.22,0,0,0-1.62-1.6,4.78,4.78,0,0,0-4.72.13A5.08,5.08,0,0,0,311.16,85a6.77,6.77,0,0,0,0,5.83,5.12,5.12,0,0,0,1.78,2,4.86,4.86,0,0,0,4.14.42,5.22,5.22,0,0,0,1.39-.81,3.33,3.33,0,0,0,.92-1.14l4.68,1.44a7.6,7.6,0,0,1-1.89,2.52A9,9,0,0,1,319.26,97,10.59,10.59,0,0,1,315.5,97.63Z"/><path d="M325.72,91.76a5.12,5.12,0,0,1,1-3.17,6.74,6.74,0,0,1,2.84-2.11,10.86,10.86,0,0,1,4.23-.77,16.63,16.63,0,0,1,2.42.18,8.06,8.06,0,0,1,2.12.58v-1a3.48,3.48,0,0,0-1-2.69,4.57,4.57,0,0,0-3.14-.95,8.21,8.21,0,0,0-3,.54,15.7,15.7,0,0,0-3,1.55l-1.51-3.14a13.55,13.55,0,0,1,7.92-2.44,9.18,9.18,0,0,1,6.28,2A7.15,7.15,0,0,1,343.18,86v5.93a1.63,1.63,0,0,0,.27,1.06,1.26,1.26,0,0,0,.89.39v3.93l-1.17.18a3.45,3.45,0,0,1-.89,0,3.25,3.25,0,0,1-2.17-.63,2.49,2.49,0,0,1-.89-1.56l-.1-1a9,9,0,0,1-6.84,3.31,7.16,7.16,0,0,1-3.37-.78,6,6,0,0,1-2.34-2.12A5.47,5.47,0,0,1,325.72,91.76Zm11.74.9a3,3,0,0,0,.65-.81,1.63,1.63,0,0,0,.25-.77V89.22a10.45,10.45,0,0,0-1.87-.54,10.09,10.09,0,0,0-1.91-.2,5.59,5.59,0,0,0-3.08.79,2.41,2.41,0,0,0-1.2,2.09,2.57,2.57,0,0,0,.39,1.35,2.81,2.81,0,0,0,1.14,1,3.82,3.82,0,0,0,1.81.39,5.51,5.51,0,0,0,2.13-.43A5.18,5.18,0,0,0,337.46,92.66Z"/><path d="M354.63,97.63a13.76,13.76,0,0,1-4.62-.79,10.11,10.11,0,0,1-3.77-2.34L348,91.36a12.16,12.16,0,0,0,3.27,2,8.56,8.56,0,0,0,3.17.65,4.42,4.42,0,0,0,2.25-.49,1.57,1.57,0,0,0,.85-1.46,1.31,1.31,0,0,0-.47-1.08,4,4,0,0,0-1.35-.64c-.59-.18-1.3-.39-2.14-.62a26.84,26.84,0,0,1-3.48-1.3,5.47,5.47,0,0,1-2.1-1.63,4.12,4.12,0,0,1-.72-2.51,5.36,5.36,0,0,1,.95-3.18A6.32,6.32,0,0,1,350.91,79a9.9,9.9,0,0,1,4-.74,11.51,11.51,0,0,1,3.82.63A9,9,0,0,1,362,81l-2,3.1a10.39,10.39,0,0,0-2.7-1.68,6.93,6.93,0,0,0-2.63-.52,5.47,5.47,0,0,0-1.42.18,2.35,2.35,0,0,0-1.08.58,1.57,1.57,0,0,0-.41,1.15,1.38,1.38,0,0,0,.38,1,3,3,0,0,0,1.15.67c.51.19,1.14.41,1.89.64a32.64,32.64,0,0,1,3.81,1.3,5.94,5.94,0,0,1,2.36,1.64,4.14,4.14,0,0,1,.81,2.7,5.12,5.12,0,0,1-2.05,4.32A8.88,8.88,0,0,1,354.63,97.63Z"/><path d="M392.32,92.91v4.36H374.57V71.71H392v4.35H379.54v6.16h10.73v4H379.54v6.66Z"/><path d="M395.71,71h4.82V91.25A2.66,2.66,0,0,0,401,93a1.52,1.52,0,0,0,1.15.45,5.1,5.1,0,0,0,1.25-.15,4.16,4.16,0,0,0,1.06-.39l.65,3.71a9.59,9.59,0,0,1-2.25.72,13,13,0,0,1-2.36.25A4.86,4.86,0,0,1,397,96.42,4.55,4.55,0,0,1,395.71,93Z"/><path d="M415.9,97.63a10.55,10.55,0,0,1-4.1-.77,9.17,9.17,0,0,1-3.13-2.1,9.07,9.07,0,0,1-2-3,9.7,9.7,0,0,1-.69-3.67,10,10,0,0,1,1.21-4.86,9.2,9.2,0,0,1,3.42-3.56,10.06,10.06,0,0,1,5.31-1.33,9.89,9.89,0,0,1,5.25,1.33,9.2,9.2,0,0,1,3.39,3.51,9.82,9.82,0,0,1,1.19,4.75c0,.31,0,.6,0,.87s-.05.51-.07.7H411.11a5.22,5.22,0,0,0,.81,2.51,4.77,4.77,0,0,0,1.8,1.6,5,5,0,0,0,2.33.57,5.61,5.61,0,0,0,2.75-.71,3.68,3.68,0,0,0,1.75-1.89l4.1,1.16a7.44,7.44,0,0,1-1.91,2.55,9,9,0,0,1-3,1.75A11.14,11.14,0,0,1,415.9,97.63ZM411,86.43h9.86A5.31,5.31,0,0,0,420,84a4.51,4.51,0,0,0-1.74-1.62,5,5,0,0,0-2.41-.58,4.8,4.8,0,0,0-2.36.58A4.56,4.56,0,0,0,411.78,84,5.56,5.56,0,0,0,411,86.43Z"/><path d="M437.5,97.63a10.68,10.68,0,0,1-4.16-.77,9.07,9.07,0,0,1-3.11-2.13,9.77,9.77,0,0,1-2.66-6.79,10,10,0,0,1,1.18-4.8,9.13,9.13,0,0,1,3.42-3.53,10.24,10.24,0,0,1,5.3-1.31,9.89,9.89,0,0,1,5.25,1.33A8.17,8.17,0,0,1,446,83.12l-4.68,1.44a4.22,4.22,0,0,0-1.62-1.6,4.63,4.63,0,0,0-2.27-.56,4.55,4.55,0,0,0-2.44.69A5,5,0,0,0,433.16,85a6.77,6.77,0,0,0,0,5.83,5.06,5.06,0,0,0,1.79,2,4.53,4.53,0,0,0,2.48.7,4.7,4.7,0,0,0,1.66-.28,5.32,5.32,0,0,0,1.38-.81,3.33,3.33,0,0,0,.92-1.14l4.68,1.44a7.6,7.6,0,0,1-1.89,2.52A9,9,0,0,1,441.26,97,10.59,10.59,0,0,1,437.5,97.63Z"/><path d="M460.33,96.33c-.44.19-.93.39-1.5.6a13.15,13.15,0,0,1-1.83.5,10.36,10.36,0,0,1-2,.2,6.46,6.46,0,0,1-2.49-.47,3.89,3.89,0,0,1-1.78-1.48,4.77,4.77,0,0,1-.66-2.65V82.26h-2.45V78.58h2.45V72.46h4.86v6.12h4v3.68h-4v9.13a1.71,1.71,0,0,0,1.83,1.85A4.08,4.08,0,0,0,458.2,93c.48-.18.88-.35,1.19-.49Z"/><path d="M474.11,82.58a9.59,9.59,0,0,0-4,.85,5.15,5.15,0,0,0-2.52,2.39V97.27h-4.78V78.58h4.42v3.86a8.4,8.4,0,0,1,2.58-3.06,6.21,6.21,0,0,1,3.29-1.23,3,3,0,0,0,.58,0,1,1,0,0,1,.39,0Z"/><path d="M485.24,97.63a10.16,10.16,0,0,1-4.12-.79A9.4,9.4,0,0,1,478,94.71a9.18,9.18,0,0,1-2-3.08,9.94,9.94,0,0,1-.67-3.65,10.26,10.26,0,0,1,.67-3.74,9,9,0,0,1,5.06-5.18,11.6,11.6,0,0,1,8.26,0,9.28,9.28,0,0,1,3.11,2.1,9,9,0,0,1,2,3.08,10.07,10.07,0,0,1,.69,3.74,9.75,9.75,0,0,1-.69,3.65,9.24,9.24,0,0,1-2,3.08,9.36,9.36,0,0,1-3.11,2.13A10.19,10.19,0,0,1,485.24,97.63ZM480.31,88a6.23,6.23,0,0,0,.64,2.86,4.92,4.92,0,0,0,1.79,2,4.6,4.6,0,0,0,2.5.7,4.47,4.47,0,0,0,2.48-.72,5.1,5.1,0,0,0,1.78-2,6.44,6.44,0,0,0,0-5.72,5.25,5.25,0,0,0-1.78-2,4.53,4.53,0,0,0-2.52-.72,4.47,4.47,0,0,0-2.48.72,5.22,5.22,0,0,0-1.77,2A6.23,6.23,0,0,0,480.31,88Zm6.51-11.77-3.09-.94L485.67,71h4.46Z"/><path d="M515.87,97.27h-4.82V86.84a5.47,5.47,0,0,0-.78-3.27,2.61,2.61,0,0,0-2.21-1,4.35,4.35,0,0,0-2,.5,5.87,5.87,0,0,0-1.77,1.35,6.45,6.45,0,0,0-1.2,2V97.27h-4.79V78.58h4.36v3.49a6.85,6.85,0,0,1,1.83-2,8.9,8.9,0,0,1,2.56-1.28,10,10,0,0,1,3.09-.46,5.91,5.91,0,0,1,2.9.62,4.27,4.27,0,0,1,1.73,1.69,7.57,7.57,0,0,1,.83,2.37,15.17,15.17,0,0,1,.23,2.61Z"/><path d="M520.08,75.74V71h4.79v4.75Zm0,21.53V78.4h4.79V97.27Z"/><path d="M538.05,97.63a10.64,10.64,0,0,1-4.16-.77,9.07,9.07,0,0,1-3.11-2.13,9.51,9.51,0,0,1-2-3.12,9.85,9.85,0,0,1-.69-3.67,10,10,0,0,1,1.19-4.8,9,9,0,0,1,3.42-3.53A10.2,10.2,0,0,1,538,78.3a10,10,0,0,1,5.26,1.33,8.29,8.29,0,0,1,3.24,3.49l-4.68,1.44a4.22,4.22,0,0,0-1.62-1.6,4.78,4.78,0,0,0-4.72.13A5,5,0,0,0,533.71,85a6.68,6.68,0,0,0,0,5.83,5,5,0,0,0,1.78,2,4.86,4.86,0,0,0,4.14.42,5.22,5.22,0,0,0,1.39-.81,3.46,3.46,0,0,0,.92-1.14l4.68,1.44a7.88,7.88,0,0,1-1.89,2.52A9,9,0,0,1,541.81,97,10.63,10.63,0,0,1,538.05,97.63Z"/><path d="M548.27,91.76a5.06,5.06,0,0,1,1-3.17,6.74,6.74,0,0,1,2.84-2.11,10.82,10.82,0,0,1,4.23-.77,16.49,16.49,0,0,1,2.41.18,8,8,0,0,1,2.13.58v-1a3.45,3.45,0,0,0-1-2.69,4.52,4.52,0,0,0-3.13-.95,8.3,8.3,0,0,0-3,.54,15.63,15.63,0,0,0-3,1.55l-1.51-3.14a13.76,13.76,0,0,1,3.8-1.85,14,14,0,0,1,4.12-.59,9.18,9.18,0,0,1,6.28,2A7.15,7.15,0,0,1,565.73,86v5.93A1.63,1.63,0,0,0,566,93a1.25,1.25,0,0,0,.88.39v3.93l-1.17.18a3.36,3.36,0,0,1-.88,0,3.3,3.3,0,0,1-2.18-.63,2.52,2.52,0,0,1-.88-1.56l-.11-1a8.56,8.56,0,0,1-3.09,2.44,8.68,8.68,0,0,1-3.75.87,7.14,7.14,0,0,1-3.36-.78,6,6,0,0,1-2.34-2.12A5.39,5.39,0,0,1,548.27,91.76Zm11.74.9a3,3,0,0,0,.65-.81,1.75,1.75,0,0,0,.25-.77V89.22a10.45,10.45,0,0,0-1.87-.54,10.17,10.17,0,0,0-1.91-.2,5.56,5.56,0,0,0-3.08.79,2.42,2.42,0,0,0-1.21,2.09,2.58,2.58,0,0,0,.4,1.35,2.78,2.78,0,0,0,1.13,1,3.89,3.89,0,0,0,1.82.39,5.51,5.51,0,0,0,2.13-.43A5.18,5.18,0,0,0,560,92.66Z"/><path d="M577.18,97.63a13.86,13.86,0,0,1-4.63-.79,10.07,10.07,0,0,1-3.76-2.34l1.77-3.14a12.16,12.16,0,0,0,3.27,2A8.56,8.56,0,0,0,577,94a4.42,4.42,0,0,0,2.25-.49,1.59,1.59,0,0,0,.85-1.46,1.31,1.31,0,0,0-.47-1.08,4.14,4.14,0,0,0-1.35-.64c-.59-.18-1.3-.39-2.14-.62a26.29,26.29,0,0,1-3.48-1.3,5.47,5.47,0,0,1-2.1-1.63,4.06,4.06,0,0,1-.72-2.51,5.3,5.3,0,0,1,.95-3.18A6.29,6.29,0,0,1,573.45,79a10,10,0,0,1,4-.74,11.45,11.45,0,0,1,3.81.63,9.07,9.07,0,0,1,3.28,2l-2,3.1a10.73,10.73,0,0,0-2.7-1.68,6.93,6.93,0,0,0-2.63-.52,5.42,5.42,0,0,0-1.42.18,2.3,2.3,0,0,0-1.08.58,1.53,1.53,0,0,0-.41,1.15,1.42,1.42,0,0,0,.37,1,3.14,3.14,0,0,0,1.16.67c.51.19,1.14.41,1.89.64a32.64,32.64,0,0,1,3.81,1.3,5.94,5.94,0,0,1,2.36,1.64,4.14,4.14,0,0,1,.81,2.7,5.12,5.12,0,0,1-2,4.32A8.9,8.9,0,0,1,577.18,97.63Z"/><path d="M614.87,92.91v4.36H597.12V71.71h17.43v4.35H602.09v6.16h10.73v4H602.09v6.66Z"/><path d="M647.49,97.27h-4.83V86.84a5.55,5.55,0,0,0-.77-3.27,2.55,2.55,0,0,0-2.14-1,4,4,0,0,0-2.7,1.09,6,6,0,0,0-1.8,2.78V97.27h-4.86V86.84a5.63,5.63,0,0,0-.76-3.27,2.49,2.49,0,0,0-2.12-1,4.18,4.18,0,0,0-2.7,1.06A5.62,5.62,0,0,0,623,86.38V97.27h-4.79V78.58h4.36v3.49a7.43,7.43,0,0,1,2.9-2.8,8.56,8.56,0,0,1,4.12-1,5.42,5.42,0,0,1,3.65,1.13,5,5,0,0,1,1.68,2.82,7.76,7.76,0,0,1,7-4,5.68,5.68,0,0,1,2.83.62,4.5,4.5,0,0,1,1.71,1.67,7.18,7.18,0,0,1,.84,2.37,14.62,14.62,0,0,1,.24,2.63Z"/><path d="M651.7,75.74V71h4.79v4.75Zm0,21.53V78.4h4.79V97.27Z"/><path d="M672.18,96.33c-.43.19-.93.39-1.49.6a13.3,13.3,0,0,1-1.84.5,10.28,10.28,0,0,1-2,.2,6.37,6.37,0,0,1-2.48-.47,3.84,3.84,0,0,1-1.78-1.48,4.69,4.69,0,0,1-.67-2.65V82.26h-2.45V78.58h2.45V72.46h4.86v6.12h4v3.68h-4v9.13a1.71,1.71,0,0,0,1.84,1.85,4.08,4.08,0,0,0,1.44-.27c.48-.18.87-.35,1.19-.49Z"/><path d="M674.7,75.74V71h4.79v4.75Zm0,21.53V78.4h4.79V97.27Z"/><path d="M682.73,87.94a10.91,10.91,0,0,1,1.08-4.87,8.66,8.66,0,0,1,3-3.49,7.57,7.57,0,0,1,4.35-1.28,7.13,7.13,0,0,1,3.75,1,7.27,7.27,0,0,1,2.59,2.61V71h4.86V91.87A1.79,1.79,0,0,0,702.6,93a1.23,1.23,0,0,0,.87.39v3.93a9.23,9.23,0,0,1-2.06.21,3.25,3.25,0,0,1-2.14-.61,2.34,2.34,0,0,1-.95-1.69L698.25,94a7,7,0,0,1-2.83,2.7,7.85,7.85,0,0,1-3.73.94,8.81,8.81,0,0,1-3.58-.73,8.43,8.43,0,0,1-2.84-2.07,9.51,9.51,0,0,1-1.87-3.09A10.55,10.55,0,0,1,682.73,87.94Zm14.8,2.44V86a5.07,5.07,0,0,0-1.16-1.84,6.06,6.06,0,0,0-1.76-1.28,4.37,4.37,0,0,0-1.94-.48,4.32,4.32,0,0,0-2,.46,5.19,5.19,0,0,0-1.57,1.23,5.33,5.33,0,0,0-1,1.79,6.52,6.52,0,0,0-.35,2.13,6,6,0,0,0,.4,2.18A5.53,5.53,0,0,0,689.21,92a4.56,4.56,0,0,0,1.66,1.17,5.32,5.32,0,0,0,2.08.4,4.25,4.25,0,0,0,1.41-.23,5.52,5.52,0,0,0,1.31-.65,6,6,0,0,0,1.14-1A3.49,3.49,0,0,0,697.53,90.38Z"/><path d="M705.81,91.76a5.12,5.12,0,0,1,1-3.17,6.77,6.77,0,0,1,2.85-2.11,10.82,10.82,0,0,1,4.23-.77,16.6,16.6,0,0,1,2.41.18,8.06,8.06,0,0,1,2.12.58v-1a3.48,3.48,0,0,0-1-2.69,4.54,4.54,0,0,0-3.13-.95,8.22,8.22,0,0,0-3,.54,15.34,15.34,0,0,0-2.95,1.55l-1.52-3.14a13.55,13.55,0,0,1,7.92-2.44,9.21,9.21,0,0,1,6.29,2A7.15,7.15,0,0,1,723.27,86v5.93a1.63,1.63,0,0,0,.27,1.06,1.23,1.23,0,0,0,.88.39v3.93l-1.17.18a3.37,3.37,0,0,1-.88,0,3.28,3.28,0,0,1-2.18-.63,2.48,2.48,0,0,1-.88-1.56l-.11-1a8.51,8.51,0,0,1-3.1,2.44,8.63,8.63,0,0,1-3.74.87,7.18,7.18,0,0,1-3.37-.78,6.16,6.16,0,0,1-2.34-2.12A5.46,5.46,0,0,1,705.81,91.76Zm11.73.9a2.83,2.83,0,0,0,.65-.81,1.63,1.63,0,0,0,.25-.77V89.22a10.22,10.22,0,0,0-1.87-.54,10.09,10.09,0,0,0-1.91-.2,5.59,5.59,0,0,0-3.08.79,2.41,2.41,0,0,0-1.2,2.09,2.57,2.57,0,0,0,.39,1.35,2.87,2.87,0,0,0,1.14,1,3.86,3.86,0,0,0,1.82.39,5.47,5.47,0,0,0,2.12-.43A5.08,5.08,0,0,0,717.54,92.66Z"/><path d="M734.71,97.63a13.8,13.8,0,0,1-4.62-.79,10,10,0,0,1-3.76-2.34l1.76-3.14a12.2,12.2,0,0,0,3.28,2,8.51,8.51,0,0,0,3.16.65,4.42,4.42,0,0,0,2.25-.49,1.57,1.57,0,0,0,.85-1.46,1.31,1.31,0,0,0-.47-1.08,4,4,0,0,0-1.35-.64c-.59-.18-1.3-.39-2.14-.62a26.09,26.09,0,0,1-3.47-1.3,5.43,5.43,0,0,1-2.11-1.63,4.12,4.12,0,0,1-.72-2.51,5.36,5.36,0,0,1,1-3.18A6.32,6.32,0,0,1,731,79a9.93,9.93,0,0,1,4-.74,11.47,11.47,0,0,1,3.82.63,9,9,0,0,1,3.27,2l-2,3.1a10.39,10.39,0,0,0-2.7-1.68,6.91,6.91,0,0,0-2.62-.52,5.49,5.49,0,0,0-1.43.18,2.35,2.35,0,0,0-1.08.58,1.57,1.57,0,0,0-.41,1.15,1.42,1.42,0,0,0,.38,1,3,3,0,0,0,1.15.67c.52.19,1.15.41,1.89.64a33.54,33.54,0,0,1,3.82,1.3,5.9,5.9,0,0,1,2.35,1.64,4.14,4.14,0,0,1,.81,2.7,5.12,5.12,0,0,1-2,4.32A8.88,8.88,0,0,1,734.71,97.63Z"/><path d="M753.25,84.78a18.69,18.69,0,0,1,1.53-7.31,60.34,60.34,0,0,1,3.8-7.45l3.67,1.54c-.36.58-.8,1.36-1.31,2.34a33.5,33.5,0,0,0-1.51,3.35,30.11,30.11,0,0,0-1.23,3.84,15.87,15.87,0,0,0-.48,3.79,16.68,16.68,0,0,0,1.22,6.05,43.12,43.12,0,0,0,3.2,6.48l-3.52,1.77c-1-1.52-1.89-3.06-2.72-4.65A25.53,25.53,0,0,1,754,89.69,18.14,18.14,0,0,1,753.25,84.78Z"/><path d="M764.52,97.27a15.72,15.72,0,0,1,.25-2.94,7.91,7.91,0,0,1,.9-2.45,9,9,0,0,1,1.73-2.14,15.13,15.13,0,0,1,2.77-1.95l2.59-1.4c.75-.4,1.38-.77,1.91-1.11a4.07,4.07,0,0,0,1.17-1,2.06,2.06,0,0,0,.38-1.22,2.49,2.49,0,0,0-.4-1.37,2.68,2.68,0,0,0-1.11-1,4.25,4.25,0,0,0-1.84-.35,5.53,5.53,0,0,0-2.93.83,8.52,8.52,0,0,0-1.17.88c-.36.33-.7.66-1,1l-3-3.49a8.11,8.11,0,0,1,1.32-1.1,11.7,11.7,0,0,1,2-1.11,14.79,14.79,0,0,1,2.61-.87,13,13,0,0,1,3-.34,10.08,10.08,0,0,1,4.17.78,6.19,6.19,0,0,1,2.65,2.17,5.68,5.68,0,0,1,.92,3.21,5.33,5.33,0,0,1-.47,2.3,6.31,6.31,0,0,1-1.21,1.74,10.7,10.7,0,0,1-1.56,1.32c-.56.38-1.1.73-1.62,1l-2,1.08a12.81,12.81,0,0,0-1.58,1,11.23,11.23,0,0,0-1.19,1,5.94,5.94,0,0,0-.92,1.17h11v4.36Z"/><path d="M803.8,86.88a12.12,12.12,0,0,1-1.23,5.55,9.52,9.52,0,0,1-3.33,3.81,8.78,8.78,0,0,1-9.48,0,9.49,9.49,0,0,1-3.35-3.81,13.14,13.14,0,0,1,0-11.1,9.62,9.62,0,0,1,3.35-3.83,8.46,8.46,0,0,1,4.75-1.4,8.36,8.36,0,0,1,4.75,1.4,9.76,9.76,0,0,1,3.31,3.83A12.12,12.12,0,0,1,803.8,86.88Zm-4.86,0a9,9,0,0,0-.58-3.33,5.22,5.22,0,0,0-1.57-2.23,3.53,3.53,0,0,0-2.28-.79,3.66,3.66,0,0,0-2.34.79,5.05,5.05,0,0,0-1.57,2.23,9.22,9.22,0,0,0-.56,3.33,9.13,9.13,0,0,0,.56,3.32,5.1,5.1,0,0,0,1.57,2.21,3.66,3.66,0,0,0,2.34.79,3.53,3.53,0,0,0,2.28-.79,5.27,5.27,0,0,0,1.57-2.21A8.91,8.91,0,0,0,798.94,86.88Z"/><path d="M822.48,92.91v4.36H807.83V92.91h5.11V82a3.58,3.58,0,0,1-1,.9,10.28,10.28,0,0,1-1.55.86,12.93,12.93,0,0,1-1.71.65,5.44,5.44,0,0,1-1.57.25v-4.5a4.3,4.3,0,0,0,1.59-.39,12.56,12.56,0,0,0,1.83-1,16,16,0,0,0,1.57-1.16,3.09,3.09,0,0,0,.81-.88h5v16.2Z"/><path d="M842.5,93.2a9.19,9.19,0,0,1-3.33,3.22,9.4,9.4,0,0,1-4.77,1.21,8.82,8.82,0,0,1-5-1.39,9.08,9.08,0,0,1-3.28-4A15.44,15.44,0,0,1,825,85.93,22.18,22.18,0,0,1,826.19,78a10.31,10.31,0,0,1,3.45-4.84,8.6,8.6,0,0,1,5.26-1.64,9.45,9.45,0,0,1,7.88,4l-2.77,3a6.56,6.56,0,0,0-2.23-2.12,5.77,5.77,0,0,0-2.95-.79,4.52,4.52,0,0,0-2.79.9,5.73,5.73,0,0,0-1.87,2.52,10.76,10.76,0,0,0-.71,3.92,5.44,5.44,0,0,1,1.3-1.49,5.65,5.65,0,0,1,1.84-1,7.66,7.66,0,0,1,2.23-.32,9.11,9.11,0,0,1,4.55,1.12,8.52,8.52,0,0,1,3.17,3,8.09,8.09,0,0,1,1.17,4.32A8.53,8.53,0,0,1,842.5,93.2Zm-5.73-.32a5.06,5.06,0,0,0,1.69-1.75,4.54,4.54,0,0,0,.65-2.39,4.63,4.63,0,0,0-.63-2.38,4.7,4.7,0,0,0-6.39-1.67,4.91,4.91,0,0,0-1.73,1.69,4.45,4.45,0,0,0-.64,2.36,4.63,4.63,0,0,0,.64,2.39,5.08,5.08,0,0,0,1.73,1.75,4.48,4.48,0,0,0,2.34.64A4.35,4.35,0,0,0,836.77,92.88Z"/><path d="M855.89,89.56V85.21h10.94v4.35Z"/><path d="M878.89,97.27a15.72,15.72,0,0,1,.25-2.94,7.91,7.91,0,0,1,.9-2.45,9,9,0,0,1,1.73-2.14,15.13,15.13,0,0,1,2.77-1.95l2.59-1.4c.75-.4,1.38-.77,1.91-1.11a4.07,4.07,0,0,0,1.17-1,2.06,2.06,0,0,0,.38-1.22,2.49,2.49,0,0,0-.4-1.37,2.68,2.68,0,0,0-1.11-1,4.25,4.25,0,0,0-1.84-.35,5.53,5.53,0,0,0-2.93.83,8.52,8.52,0,0,0-1.17.88c-.36.33-.7.66-1,1l-3-3.49a8.11,8.11,0,0,1,1.32-1.1,11.7,11.7,0,0,1,2-1.11,14.79,14.79,0,0,1,2.61-.87,13,13,0,0,1,3-.34,10.08,10.08,0,0,1,4.17.78,6.19,6.19,0,0,1,2.65,2.17,5.68,5.68,0,0,1,.92,3.21,5.33,5.33,0,0,1-.47,2.3,6.31,6.31,0,0,1-1.21,1.74,10.7,10.7,0,0,1-1.56,1.32c-.56.38-1.1.73-1.62,1l-2,1.08a12.81,12.81,0,0,0-1.58,1,11.23,11.23,0,0,0-1.19,1,5.94,5.94,0,0,0-.92,1.17h11v4.36Z"/><path d="M918.17,86.88a12.12,12.12,0,0,1-1.23,5.55,9.52,9.52,0,0,1-3.33,3.81,8.78,8.78,0,0,1-9.48,0,9.49,9.49,0,0,1-3.35-3.81,13.14,13.14,0,0,1,0-11.1,9.62,9.62,0,0,1,3.35-3.83,8.46,8.46,0,0,1,4.75-1.4,8.36,8.36,0,0,1,4.75,1.4,9.76,9.76,0,0,1,3.31,3.83A12.12,12.12,0,0,1,918.17,86.88Zm-4.86,0a9,9,0,0,0-.58-3.33,5.22,5.22,0,0,0-1.57-2.23,3.53,3.53,0,0,0-2.28-.79,3.66,3.66,0,0,0-2.34.79A5.05,5.05,0,0,0,905,83.55a9.22,9.22,0,0,0-.56,3.33A9.13,9.13,0,0,0,905,90.2a5.1,5.1,0,0,0,1.57,2.21,3.66,3.66,0,0,0,2.34.79,3.53,3.53,0,0,0,2.28-.79,5.27,5.27,0,0,0,1.57-2.21A8.91,8.91,0,0,0,913.31,86.88Z"/><path d="M921.3,97.27a15.72,15.72,0,0,1,.25-2.94,7.91,7.91,0,0,1,.9-2.45,9,9,0,0,1,1.73-2.14A15.13,15.13,0,0,1,927,87.79l2.59-1.4c.74-.4,1.38-.77,1.91-1.11a4.07,4.07,0,0,0,1.17-1A2.06,2.06,0,0,0,933,83a2.57,2.57,0,0,0-.4-1.37,2.68,2.68,0,0,0-1.11-1,4.31,4.31,0,0,0-1.84-.35,5.46,5.46,0,0,0-2.93.83,8,8,0,0,0-1.17.88c-.36.33-.7.66-1,1l-3-3.49a8.43,8.43,0,0,1,1.31-1.1,12.21,12.21,0,0,1,2-1.11,14.79,14.79,0,0,1,2.61-.87,12.94,12.94,0,0,1,3-.34,10.09,10.09,0,0,1,4.18.78,6.25,6.25,0,0,1,2.65,2.17,5.67,5.67,0,0,1,.91,3.21,5.34,5.34,0,0,1-.46,2.3,6.53,6.53,0,0,1-1.21,1.74A10.27,10.27,0,0,1,935,87.62c-.55.38-1.09.73-1.62,1l-2,1.08a12.81,12.81,0,0,0-1.58,1,11.23,11.23,0,0,0-1.19,1,5.59,5.59,0,0,0-.92,1.17h11v4.36Z"/><path d="M960.57,86.88a12.25,12.25,0,0,1-1.22,5.55A9.68,9.68,0,0,1,956,96.24a8.79,8.79,0,0,1-9.49,0,9.54,9.54,0,0,1-3.34-3.81,13.14,13.14,0,0,1,0-11.1,9.67,9.67,0,0,1,3.34-3.83,8.48,8.48,0,0,1,4.75-1.4A8.37,8.37,0,0,1,956,77.5a9.84,9.84,0,0,1,3.31,3.83A12.25,12.25,0,0,1,960.57,86.88Zm-4.86,0a9,9,0,0,0-.57-3.33,5.3,5.3,0,0,0-1.57-2.23,3.54,3.54,0,0,0-2.29-.79,3.65,3.65,0,0,0-2.33.79,5,5,0,0,0-1.57,2.23,9.22,9.22,0,0,0-.56,3.33,9.13,9.13,0,0,0,.56,3.32A5,5,0,0,0,949,92.41a3.65,3.65,0,0,0,2.33.79,3.54,3.54,0,0,0,2.29-.79,5.36,5.36,0,0,0,1.57-2.21A8.91,8.91,0,0,0,955.71,86.88Z"/><path d="M971.62,84.78a17.42,17.42,0,0,1-.72,4.91,26.26,26.26,0,0,1-2,4.84c-.83,1.59-1.73,3.13-2.72,4.65l-3.52-1.77a43.12,43.12,0,0,0,3.2-6.48,16.68,16.68,0,0,0,1.22-6.05,15.87,15.87,0,0,0-.48-3.79,30.11,30.11,0,0,0-1.23-3.84c-.49-1.25-1-2.36-1.49-3.35a25.56,25.56,0,0,0-1.33-2.34L966.26,70a63.5,63.5,0,0,1,3.82,7.45A18.53,18.53,0,0,1,971.62,84.78Z"/><path d="M68.41,745.85v1.33H63v4.23h4.43v1.33H63v5.66H61.32V745.85Z"/><path d="M79.14,748.53v9.87H77.5v-1.46a3.17,3.17,0,0,1-1.3,1.18,4.06,4.06,0,0,1-1.85.42,4.45,4.45,0,0,1-2.07-.48,3.37,3.37,0,0,1-1.44-1.43,4.63,4.63,0,0,1-.54-2.32v-5.78h1.62v5.57a3.17,3.17,0,0,0,.74,2.24,2.65,2.65,0,0,0,2,.78,2.71,2.71,0,0,0,2.07-.81A3.36,3.36,0,0,0,77.5,754v-5.42Z"/><path d="M90.86,754.08H83a3.1,3.1,0,0,0,3.2,3.09,3,3,0,0,0,1.77-.49,2.58,2.58,0,0,0,1-1.32h1.77a4.34,4.34,0,0,1-1.59,2.31,4.79,4.79,0,0,1-2.95.89,5,5,0,0,1-2.51-.63,4.48,4.48,0,0,1-1.74-1.79,5.57,5.57,0,0,1-.63-2.69,5.7,5.7,0,0,1,.61-2.68A4.4,4.4,0,0,1,83.63,749a5.18,5.18,0,0,1,2.55-.62,5,5,0,0,1,2.48.61,4.24,4.24,0,0,1,1.67,1.69,5,5,0,0,1,.58,2.42A8.63,8.63,0,0,1,90.86,754.08Zm-2-3a2.65,2.65,0,0,0-1.13-1,3.42,3.42,0,0,0-1.57-.35,3,3,0,0,0-2.12.79,3.26,3.26,0,0,0-1,2.19h6.23A3.08,3.08,0,0,0,88.81,751.13Z"/><path d="M100.8,749.44a4.21,4.21,0,0,1,1.11,3.14v5.82h-1.62v-5.58a3.13,3.13,0,0,0-.74-2.26,2.63,2.63,0,0,0-2-.78,2.68,2.68,0,0,0-2.06.8,3.32,3.32,0,0,0-.77,2.36v5.46H93.07v-9.87h1.64v1.41A3.21,3.21,0,0,1,96,748.77a4.37,4.37,0,0,1,4.76.67Z"/><path d="M106.59,749.88v5.82a1.33,1.33,0,0,0,.31,1,1.49,1.49,0,0,0,1.06.3h1.21v1.39h-1.48a2.93,2.93,0,0,1-2-.63,2.69,2.69,0,0,1-.69-2.07v-5.82h-1.27v-1.35H105v-2.48h1.64v2.48h2.58v1.35Z"/><path d="M120.09,754.08h-7.88a3.1,3.1,0,0,0,3.2,3.09,3,3,0,0,0,1.77-.49,2.58,2.58,0,0,0,1-1.32H120a4.28,4.28,0,0,1-1.59,2.31,4.79,4.79,0,0,1-3,.89,5,5,0,0,1-2.51-.63,4.48,4.48,0,0,1-1.74-1.79,6.08,6.08,0,0,1,0-5.37,4.32,4.32,0,0,1,1.71-1.78,5.18,5.18,0,0,1,2.55-.62,5,5,0,0,1,2.49.61,4.22,4.22,0,0,1,1.66,1.69,5,5,0,0,1,.59,2.42A8.74,8.74,0,0,1,120.09,754.08Zm-2-3a2.65,2.65,0,0,0-1.13-1,3.39,3.39,0,0,0-1.57-.35,3,3,0,0,0-2.12.79,3.21,3.21,0,0,0-1,2.19h6.22A3,3,0,0,0,118,751.13Z"/><path d="M122,750.48a1.12,1.12,0,0,1,0-1.59,1.09,1.09,0,0,1,.79-.32,1,1,0,0,1,.76.32,1.15,1.15,0,0,1,0,1.59,1,1,0,0,1-.76.32A1.09,1.09,0,0,1,122,750.48Zm0,7.7a1.07,1.07,0,0,1-.33-.79,1.13,1.13,0,0,1,1.12-1.12,1,1,0,0,1,.76.33,1.09,1.09,0,0,1,.32.79,1.1,1.1,0,0,1-.32.79,1,1,0,0,1-.76.32A1,1,0,0,1,122,758.18Z"/><path d="M132.7,758.08a3.7,3.7,0,0,1-1.54-1.22,3.14,3.14,0,0,1-.57-1.81h1.74a2.26,2.26,0,0,0,.73,1.48,2.59,2.59,0,0,0,1.86.61,2.74,2.74,0,0,0,1.85-.59,1.89,1.89,0,0,0,.67-1.5,1.72,1.72,0,0,0-.39-1.17,2.55,2.55,0,0,0-1-.68,14.74,14.74,0,0,0-1.6-.51,12.55,12.55,0,0,1-2-.65,3.12,3.12,0,0,1-1.28-1,3,3,0,0,1-.53-1.87,3.18,3.18,0,0,1,.52-1.81,3.43,3.43,0,0,1,1.47-1.23,5.13,5.13,0,0,1,2.17-.43,4.52,4.52,0,0,1,2.88.88,3.25,3.25,0,0,1,1.27,2.34h-1.8a2,2,0,0,0-.75-1.27,2.73,2.73,0,0,0-1.77-.55,2.57,2.57,0,0,0-1.67.53,1.83,1.83,0,0,0-.65,1.49,1.61,1.61,0,0,0,.39,1.12,2.56,2.56,0,0,0,.95.65c.38.15.91.32,1.6.52a14.24,14.24,0,0,1,2,.67,3.23,3.23,0,0,1,1.3,1,3,3,0,0,1,.54,1.88,3.23,3.23,0,0,1-.49,1.72,3.56,3.56,0,0,1-1.44,1.32,4.67,4.67,0,0,1-2.25.5A5.27,5.27,0,0,1,132.7,758.08Z"/><path d="M150.26,748.53v9.87h-1.64v-1.46a3.23,3.23,0,0,1-1.3,1.18,4.09,4.09,0,0,1-1.85.42,4.39,4.39,0,0,1-2.07-.48,3.44,3.44,0,0,1-1.45-1.43,4.74,4.74,0,0,1-.53-2.32v-5.78H143v5.57a3.17,3.17,0,0,0,.74,2.24,2.64,2.64,0,0,0,2,.78,2.71,2.71,0,0,0,2.07-.81,3.36,3.36,0,0,0,.75-2.36v-5.42Z"/><path d="M156.12,748.94a4.31,4.31,0,0,1,2.24-.57,4.58,4.58,0,0,1,2.38.63,4.43,4.43,0,0,1,1.69,1.77,6.1,6.1,0,0,1,0,5.32,4.51,4.51,0,0,1-4.07,2.47,4.27,4.27,0,0,1-2.22-.57,4.07,4.07,0,0,1-1.47-1.41v6.5H153V748.53h1.64v1.82A3.93,3.93,0,0,1,156.12,748.94Zm4.8,2.55a3,3,0,0,0-1.22-1.26,3.41,3.41,0,0,0-3.35,0,3.21,3.21,0,0,0-1.22,1.28,4.34,4.34,0,0,0,0,3.89,3.21,3.21,0,0,0,1.22,1.28,3.41,3.41,0,0,0,3.35,0,3.21,3.21,0,0,0,1.22-1.28,4.09,4.09,0,0,0,.45-2A4,4,0,0,0,160.92,751.49Z"/><path d="M174.15,754.08h-7.89a3.1,3.1,0,0,0,3.21,3.09,3,3,0,0,0,1.77-.49,2.63,2.63,0,0,0,1-1.32H174a4.27,4.27,0,0,1-1.58,2.31,4.81,4.81,0,0,1-2.95.89,5,5,0,0,1-2.52-.63,4.52,4.52,0,0,1-1.73-1.79,6.12,6.12,0,0,1,0-5.37,4.34,4.34,0,0,1,1.72-1.78,5.18,5.18,0,0,1,2.55-.62A5,5,0,0,1,172,749a4.22,4.22,0,0,1,1.66,1.69,5,5,0,0,1,.59,2.42C174.2,753.4,174.18,753.73,174.15,754.08Zm-2.06-3a2.63,2.63,0,0,0-1.12-1,3.46,3.46,0,0,0-1.58-.35,3,3,0,0,0-2.11.79,3.22,3.22,0,0,0-1,2.19h6.23A3,3,0,0,0,172.09,751.13Z"/><path d="M179.23,748.82a3.83,3.83,0,0,1,2-.47V750h-.43c-1.83,0-2.75,1-2.75,3v5.37h-1.64v-9.87H178v1.6A3.17,3.17,0,0,1,179.23,748.82Z"/><path d="M183.13,746.61a1.12,1.12,0,0,1,0-1.59,1.09,1.09,0,0,1,.79-.32,1,1,0,0,1,.76.32,1.15,1.15,0,0,1,0,1.59,1,1,0,0,1-.76.32A1.09,1.09,0,0,1,183.13,746.61Zm1.58,1.92v9.87h-1.64v-9.87Z"/><path d="M195.22,749.44a4.17,4.17,0,0,1,1.12,3.14v5.82h-1.62v-5.58a3.17,3.17,0,0,0-.74-2.26,2.63,2.63,0,0,0-2-.78,2.7,2.7,0,0,0-2.07.8,3.32,3.32,0,0,0-.76,2.36v5.46H187.5v-9.87h1.64v1.41a3.12,3.12,0,0,1,1.32-1.17,4.06,4.06,0,0,1,1.85-.42A4,4,0,0,1,195.22,749.44Z"/><path d="M201,749.88v5.82a1.37,1.37,0,0,0,.3,1,1.52,1.52,0,0,0,1.07.3h1.2v1.39h-1.47a2.91,2.91,0,0,1-2.05-.63,2.69,2.69,0,0,1-.69-2.07v-5.82H198.1v-1.35h1.28v-2.48H201v2.48h2.57v1.35Z"/><path d="M214.52,754.08h-7.89a3.1,3.1,0,0,0,3.21,3.09,3,3,0,0,0,1.77-.49,2.58,2.58,0,0,0,1-1.32h1.76a4.27,4.27,0,0,1-1.58,2.31,4.81,4.81,0,0,1-2.95.89,5,5,0,0,1-2.51-.63,4.48,4.48,0,0,1-1.74-1.79,6.12,6.12,0,0,1,0-5.37,4.34,4.34,0,0,1,1.72-1.78,5.18,5.18,0,0,1,2.55-.62,5,5,0,0,1,2.48.61,4.24,4.24,0,0,1,1.67,1.69,5,5,0,0,1,.58,2.42C214.57,753.4,214.55,753.73,214.52,754.08Zm-2.05-3a2.65,2.65,0,0,0-1.13-1,3.42,3.42,0,0,0-1.57-.35,3,3,0,0,0-2.12.79,3.26,3.26,0,0,0-1,2.19h6.23A3.08,3.08,0,0,0,212.47,751.13Z"/><path d="M224.45,749.44a4.17,4.17,0,0,1,1.12,3.14v5.82H224v-5.58a3.17,3.17,0,0,0-.74-2.26,2.63,2.63,0,0,0-2-.78,2.68,2.68,0,0,0-2.06.8,3.32,3.32,0,0,0-.77,2.36v5.46h-1.64v-9.87h1.64v1.41a3.18,3.18,0,0,1,1.32-1.17,4.09,4.09,0,0,1,1.85-.42A4,4,0,0,1,224.45,749.44Z"/><path d="M228.25,750.77a4.43,4.43,0,0,1,1.69-1.77,4.62,4.62,0,0,1,2.4-.63,4.49,4.49,0,0,1,2.14.53,3.87,3.87,0,0,1,1.51,1.4v-5.22h1.66V758.4H236v-1.86a3.78,3.78,0,0,1-1.44,1.45,4.25,4.25,0,0,1-2.23.57,4.51,4.51,0,0,1-4.07-2.47,6.1,6.1,0,0,1,0-5.32Zm7.29.73a3.22,3.22,0,0,0-1.21-1.27,3.35,3.35,0,0,0-1.69-.44,3.28,3.28,0,0,0-1.67.44,3.07,3.07,0,0,0-1.21,1.26,4,4,0,0,0-.45,1.94,4.09,4.09,0,0,0,.45,2,3.18,3.18,0,0,0,2.88,1.72,3.35,3.35,0,0,0,1.69-.44,3.18,3.18,0,0,0,1.21-1.28,4.45,4.45,0,0,0,0-3.9Z"/><path d="M249.37,754.08h-7.89a3.1,3.1,0,0,0,3.21,3.09,3,3,0,0,0,1.77-.49,2.63,2.63,0,0,0,1-1.32h1.76a4.27,4.27,0,0,1-1.58,2.31,4.81,4.81,0,0,1-2.95.89,5,5,0,0,1-2.51-.63,4.48,4.48,0,0,1-1.74-1.79,6.12,6.12,0,0,1,0-5.37,4.34,4.34,0,0,1,1.72-1.78,5.18,5.18,0,0,1,2.55-.62,5,5,0,0,1,2.48.61,4.24,4.24,0,0,1,1.67,1.69,5,5,0,0,1,.58,2.42C249.42,753.4,249.4,753.73,249.37,754.08Zm-2.06-3a2.63,2.63,0,0,0-1.12-1,3.43,3.43,0,0,0-1.58-.35,3,3,0,0,0-2.11.79,3.22,3.22,0,0,0-1,2.19h6.23A3,3,0,0,0,247.31,751.13Z"/><path d="M259.3,749.44a4.17,4.17,0,0,1,1.12,3.14v5.82H258.8v-5.58a3.17,3.17,0,0,0-.74-2.26,2.64,2.64,0,0,0-2-.78,2.7,2.7,0,0,0-2.06.8,3.32,3.32,0,0,0-.76,2.36v5.46h-1.64v-9.87h1.64v1.41a3.12,3.12,0,0,1,1.32-1.17,4.06,4.06,0,0,1,1.85-.42A4,4,0,0,1,259.3,749.44Z"/><path d="M263.1,750.77a4.39,4.39,0,0,1,1.7-1.77,4.9,4.9,0,0,1,2.49-.63,4.83,4.83,0,0,1,3,.88,4.16,4.16,0,0,1,1.56,2.45h-1.77a2.48,2.48,0,0,0-1-1.42,3,3,0,0,0-1.81-.52,2.89,2.89,0,0,0-2.26,1,3.93,3.93,0,0,0-.87,2.73,4,4,0,0,0,.87,2.75,2.86,2.86,0,0,0,2.26,1,3.11,3.11,0,0,0,1.8-.5,2.58,2.58,0,0,0,1-1.44h1.77a4.34,4.34,0,0,1-1.59,2.42,4.71,4.71,0,0,1-3,.91,4.9,4.9,0,0,1-2.49-.63,4.42,4.42,0,0,1-1.7-1.78,6.24,6.24,0,0,1,0-5.38Z"/><path d="M274.08,746.61a1.15,1.15,0,0,1,0-1.59,1.1,1.1,0,0,1,.79-.32,1.06,1.06,0,0,1,.77.32,1.17,1.17,0,0,1,0,1.59,1.06,1.06,0,0,1-.77.32A1.1,1.1,0,0,1,274.08,746.61Zm1.58,1.92v9.87H274v-9.87Z"/><path d="M278.45,750.77a4.43,4.43,0,0,1,1.69-1.77,4.6,4.6,0,0,1,2.38-.63,4.37,4.37,0,0,1,2.25.56,3.68,3.68,0,0,1,1.42,1.4v-1.8h1.66v9.87h-1.66v-1.84a3.76,3.76,0,0,1-1.45,1.43,4.29,4.29,0,0,1-2.24.57,4.49,4.49,0,0,1-2.37-.65,4.55,4.55,0,0,1-1.68-1.82,5.73,5.73,0,0,1-.61-2.66A5.67,5.67,0,0,1,278.45,750.77Zm7.29.73a3.22,3.22,0,0,0-1.21-1.27,3.43,3.43,0,0,0-3.36,0,3,3,0,0,0-1.2,1.26,4,4,0,0,0-.45,1.94,4.09,4.09,0,0,0,.45,2,3.23,3.23,0,0,0,1.2,1.28,3.43,3.43,0,0,0,3.36,0,3.18,3.18,0,0,0,1.21-1.28,4.45,4.45,0,0,0,0-3.9Z"/><path d="M295.43,750.77a4.48,4.48,0,0,1,1.68-1.77,4.65,4.65,0,0,1,2.4-.63,4.53,4.53,0,0,1,2.15.53,3.87,3.87,0,0,1,1.51,1.4v-5.22h1.65V758.4h-1.65v-1.86a3.92,3.92,0,0,1-1.44,1.45,4.28,4.28,0,0,1-2.23.57,4.48,4.48,0,0,1-4.07-2.47,6.1,6.1,0,0,1,0-5.32Zm7.29.73a3.24,3.24,0,0,0-1.22-1.27,3.34,3.34,0,0,0-1.68-.44,3.28,3.28,0,0,0-1.67.44,3,3,0,0,0-1.21,1.26,4,4,0,0,0-.45,1.94,4.09,4.09,0,0,0,.45,2,3.18,3.18,0,0,0,1.21,1.28,3.28,3.28,0,0,0,1.67.44,3.34,3.34,0,0,0,1.68-.44,3.21,3.21,0,0,0,1.22-1.28,4.45,4.45,0,0,0,0-3.9Z"/><path d="M316.54,754.08h-7.88a3.1,3.1,0,0,0,3.2,3.09,3,3,0,0,0,1.77-.49,2.58,2.58,0,0,0,1-1.32h1.77a4.28,4.28,0,0,1-1.59,2.31,4.79,4.79,0,0,1-2.95.89,5,5,0,0,1-2.51-.63,4.48,4.48,0,0,1-1.74-1.79,6.08,6.08,0,0,1,0-5.37,4.32,4.32,0,0,1,1.71-1.78,5.18,5.18,0,0,1,2.55-.62,5,5,0,0,1,2.49.61,4.22,4.22,0,0,1,1.66,1.69,5,5,0,0,1,.59,2.42A8.74,8.74,0,0,1,316.54,754.08Zm-2.05-3a2.65,2.65,0,0,0-1.13-1,3.39,3.39,0,0,0-1.57-.35,3,3,0,0,0-2.12.79,3.21,3.21,0,0,0-1,2.19h6.22A3,3,0,0,0,314.49,751.13Z"/><path d="M325.32,758.08a3.63,3.63,0,0,1-1.54-1.22,3.15,3.15,0,0,1-.58-1.81H325a2.26,2.26,0,0,0,.73,1.48,2.56,2.56,0,0,0,1.86.61,2.71,2.71,0,0,0,1.84-.59,1.87,1.87,0,0,0,.68-1.5,1.68,1.68,0,0,0-.4-1.17,2.41,2.41,0,0,0-1-.68,14,14,0,0,0-1.6-.51,12.91,12.91,0,0,1-2-.65,3.18,3.18,0,0,1-1.28-1,3.05,3.05,0,0,1-.53-1.87,3.18,3.18,0,0,1,.53-1.81,3.35,3.35,0,0,1,1.46-1.23,5.16,5.16,0,0,1,2.17-.43,4.53,4.53,0,0,1,2.89.88,3.28,3.28,0,0,1,1.27,2.34h-1.8a1.94,1.94,0,0,0-.76-1.27,2.7,2.7,0,0,0-1.76-.55,2.57,2.57,0,0,0-1.67.53,1.8,1.8,0,0,0-.65,1.49,1.61,1.61,0,0,0,.39,1.12,2.48,2.48,0,0,0,1,.65c.38.15.91.32,1.59.52a14,14,0,0,1,2,.67,3.29,3.29,0,0,1,1.3,1,3,3,0,0,1,.54,1.88,3.32,3.32,0,0,1-.49,1.72,3.56,3.56,0,0,1-1.44,1.32,4.73,4.73,0,0,1-2.25.5A5.24,5.24,0,0,1,325.32,758.08Z"/><path d="M343.07,754.08h-7.88a3.1,3.1,0,0,0,3.2,3.09,3.06,3.06,0,0,0,1.78-.49,2.69,2.69,0,0,0,1-1.32h1.76a4.27,4.27,0,0,1-1.58,2.31,4.84,4.84,0,0,1-3,.89,5,5,0,0,1-2.51-.63,4.45,4.45,0,0,1-1.73-1.79,6.12,6.12,0,0,1,0-5.37,4.34,4.34,0,0,1,1.72-1.78,5.11,5.11,0,0,1,2.54-.62,5,5,0,0,1,2.49.61,4.22,4.22,0,0,1,1.66,1.69,5,5,0,0,1,.59,2.42A8.74,8.74,0,0,1,343.07,754.08Zm-2.05-3a2.63,2.63,0,0,0-1.12-1,3.46,3.46,0,0,0-1.58-.35,3,3,0,0,0-2.11.79,3.18,3.18,0,0,0-1,2.19h6.23A3,3,0,0,0,341,751.13Z"/><path d="M351.6,748.93a3.7,3.7,0,0,1,1.43,1.4v-1.8h1.65v10.08a5,5,0,0,1-.57,2.41,4.07,4.07,0,0,1-1.65,1.64,5,5,0,0,1-2.49.6,5.46,5.46,0,0,1-3.24-.92,3.55,3.55,0,0,1-1.53-2.5h1.62a2.6,2.6,0,0,0,1.11,1.45,3.74,3.74,0,0,0,2,.54,3,3,0,0,0,2.2-.84,3.21,3.21,0,0,0,.86-2.38v-2.07a4,4,0,0,1-1.44,1.44,4.19,4.19,0,0,1-2.23.58,4.48,4.48,0,0,1-4.07-2.47,6.1,6.1,0,0,1,0-5.32A4.48,4.48,0,0,1,347,749a4.61,4.61,0,0,1,2.39-.63A4.43,4.43,0,0,1,351.6,748.93Zm1,2.57a3.24,3.24,0,0,0-1.22-1.27,3.34,3.34,0,0,0-1.68-.44,3.28,3.28,0,0,0-1.67.44,3,3,0,0,0-1.21,1.26,4,4,0,0,0-.45,1.94,4.09,4.09,0,0,0,.45,2,3.18,3.18,0,0,0,1.21,1.28,3.28,3.28,0,0,0,1.67.44,3.34,3.34,0,0,0,1.68-.44,3.21,3.21,0,0,0,1.22-1.28,4.45,4.45,0,0,0,0-3.9Z"/><path d="M366.2,748.53v9.87h-1.63v-1.46a3.26,3.26,0,0,1-1.31,1.18,4,4,0,0,1-1.84.42,4.39,4.39,0,0,1-2.07-.48,3.34,3.34,0,0,1-1.45-1.43,4.63,4.63,0,0,1-.53-2.32v-5.78H359v5.57a3.16,3.16,0,0,0,.73,2.24,3,3,0,0,0,4.09,0,3.36,3.36,0,0,0,.76-2.36v-5.42Z"/><path d="M371.85,748.82a3.8,3.8,0,0,1,1.95-.47V750h-.43c-1.84,0-2.76,1-2.76,3v5.37H369v-9.87h1.63v1.6A3.13,3.13,0,0,1,371.85,748.82Z"/><path d="M375.74,746.61a1.12,1.12,0,0,1,.8-1.91,1,1,0,0,1,.76.32,1.15,1.15,0,0,1,0,1.59,1,1,0,0,1-.76.32A1.11,1.11,0,0,1,375.74,746.61Zm1.59,1.92v9.87h-1.64v-9.87Z"/><path d="M380.12,750.77A4.48,4.48,0,0,1,381.8,749a4.65,4.65,0,0,1,2.4-.63,4.53,4.53,0,0,1,2.15.53,3.87,3.87,0,0,1,1.51,1.4v-5.22h1.65V758.4h-1.65v-1.86a3.92,3.92,0,0,1-1.44,1.45,4.28,4.28,0,0,1-2.23.57,4.48,4.48,0,0,1-4.07-2.47,6.1,6.1,0,0,1,0-5.32Zm7.29.73a3.24,3.24,0,0,0-1.22-1.27,3.34,3.34,0,0,0-1.68-.44,3.28,3.28,0,0,0-1.67.44,3,3,0,0,0-1.21,1.26,4,4,0,0,0-.45,1.94,4.09,4.09,0,0,0,.45,2,3.18,3.18,0,0,0,1.21,1.28,3.28,3.28,0,0,0,1.67.44,3.34,3.34,0,0,0,1.68-.44,3.21,3.21,0,0,0,1.22-1.28,4.45,4.45,0,0,0,0-3.9Z"/><path d="M392.29,750.77A4.35,4.35,0,0,1,394,749a4.6,4.6,0,0,1,2.38-.63,4.37,4.37,0,0,1,2.25.56,3.77,3.77,0,0,1,1.43,1.4v-1.8h1.65v9.87H400v-1.84a3.9,3.9,0,0,1-1.45,1.43,4.34,4.34,0,0,1-2.24.57,4.45,4.45,0,0,1-4-2.47,5.61,5.61,0,0,1-.62-2.66A5.56,5.56,0,0,1,392.29,750.77Zm7.29.73a3.24,3.24,0,0,0-1.22-1.27,3.43,3.43,0,0,0-3.36,0,3,3,0,0,0-1.2,1.26,4,4,0,0,0-.45,1.94,4.09,4.09,0,0,0,.45,2,3.23,3.23,0,0,0,1.2,1.28,3.43,3.43,0,0,0,3.36,0,3.21,3.21,0,0,0,1.22-1.28,4.45,4.45,0,0,0,0-3.9Z"/><path d="M404.45,750.77a4.43,4.43,0,0,1,1.69-1.77,4.62,4.62,0,0,1,2.4-.63,4.49,4.49,0,0,1,2.14.53,3.8,3.8,0,0,1,1.51,1.4v-5.22h1.66V758.4h-1.66v-1.86a3.78,3.78,0,0,1-1.44,1.45,4.25,4.25,0,0,1-2.23.57,4.51,4.51,0,0,1-4.07-2.47,5.73,5.73,0,0,1-.61-2.66A5.67,5.67,0,0,1,404.45,750.77Zm7.29.73a3.22,3.22,0,0,0-1.21-1.27,3.43,3.43,0,0,0-3.36,0,3,3,0,0,0-1.2,1.26,4,4,0,0,0-.45,1.94,4.09,4.09,0,0,0,.45,2,3.23,3.23,0,0,0,1.2,1.28,3.43,3.43,0,0,0,3.36,0,3.18,3.18,0,0,0,1.21-1.28,4.45,4.45,0,0,0,0-3.9Z"/><path d="M423.18,758.08a3.76,3.76,0,0,1-1.54-1.22,3.14,3.14,0,0,1-.57-1.81h1.74a2.31,2.31,0,0,0,.73,1.48,2.6,2.6,0,0,0,1.87.61,2.71,2.71,0,0,0,1.84-.59,1.9,1.9,0,0,0,.68-1.5,1.73,1.73,0,0,0-.4-1.17,2.41,2.41,0,0,0-1-.68,14.74,14.74,0,0,0-1.6-.51,12.91,12.91,0,0,1-2-.65,3.12,3.12,0,0,1-1.28-1,3.05,3.05,0,0,1-.53-1.87,3.18,3.18,0,0,1,.52-1.81,3.43,3.43,0,0,1,1.47-1.23,5.13,5.13,0,0,1,2.17-.43,4.54,4.54,0,0,1,2.89.88,3.28,3.28,0,0,1,1.27,2.34h-1.8a2,2,0,0,0-.76-1.27,2.7,2.7,0,0,0-1.76-.55,2.58,2.58,0,0,0-1.68.53,1.83,1.83,0,0,0-.65,1.49,1.61,1.61,0,0,0,.39,1.12,2.64,2.64,0,0,0,.95.65c.38.15.91.32,1.6.52a14.44,14.44,0,0,1,2,.67,3.26,3.26,0,0,1,1.29,1,3,3,0,0,1,.54,1.88,3.31,3.31,0,0,1-.48,1.72,3.69,3.69,0,0,1-1.44,1.32,4.73,4.73,0,0,1-2.25.5A5.32,5.32,0,0,1,423.18,758.08Z"/><path d="M433.78,757.93a4.52,4.52,0,0,1-1.76-1.79,5.46,5.46,0,0,1-.64-2.69,5.35,5.35,0,0,1,.66-2.68,4.57,4.57,0,0,1,1.79-1.78,5.51,5.51,0,0,1,5.08,0,4.64,4.64,0,0,1,1.79,1.78,5.37,5.37,0,0,1,.65,2.68,5.27,5.27,0,0,1-.67,2.69,4.7,4.7,0,0,1-1.83,1.79,5.24,5.24,0,0,1-2.55.63A5.07,5.07,0,0,1,433.78,757.93ZM438,756.7a3,3,0,0,0,1.25-1.24,3.94,3.94,0,0,0,.48-2,4.08,4.08,0,0,0-.47-2A3.07,3.07,0,0,0,438,750.2a3.51,3.51,0,0,0-3.29,0,3,3,0,0,0-1.19,1.23,4.83,4.83,0,0,0,0,4.05,2.87,2.87,0,0,0,1.18,1.23,3.3,3.3,0,0,0,1.62.41A3.4,3.4,0,0,0,438,756.7Z"/><path d="M443.51,750.77a4.46,4.46,0,0,1,1.7-1.77,4.91,4.91,0,0,1,2.5-.63,4.82,4.82,0,0,1,3,.88,4.16,4.16,0,0,1,1.56,2.45H450.5a2.57,2.57,0,0,0-1-1.42,3,3,0,0,0-1.81-.52,2.91,2.91,0,0,0-2.27,1,3.92,3.92,0,0,0-.86,2.73,4,4,0,0,0,.86,2.75,2.89,2.89,0,0,0,2.27,1,3.11,3.11,0,0,0,1.8-.5,2.58,2.58,0,0,0,1-1.44h1.76a4.33,4.33,0,0,1-1.58,2.42,4.71,4.71,0,0,1-3,.91,4.91,4.91,0,0,1-2.5-.63,4.49,4.49,0,0,1-1.7-1.78,6.24,6.24,0,0,1,0-5.38Z"/><path d="M454.49,746.61a1.12,1.12,0,0,1,.8-1.91,1,1,0,0,1,.76.32,1.15,1.15,0,0,1,0,1.59,1,1,0,0,1-.76.32A1.11,1.11,0,0,1,454.49,746.61Zm1.59,1.92v9.87h-1.64v-9.87Z"/><path d="M458.87,750.77a4.48,4.48,0,0,1,1.68-1.77,4.61,4.61,0,0,1,2.39-.63,4.42,4.42,0,0,1,2.25.56,3.75,3.75,0,0,1,1.42,1.4v-1.8h1.65v9.87h-1.65v-1.84a3.9,3.9,0,0,1-1.45,1.43,4.31,4.31,0,0,1-2.24.57,4.45,4.45,0,0,1-4.05-2.47,6.1,6.1,0,0,1,0-5.32Zm7.29.73a3.24,3.24,0,0,0-1.22-1.27,3.34,3.34,0,0,0-1.68-.44,3.28,3.28,0,0,0-1.67.44,3,3,0,0,0-1.21,1.26,4,4,0,0,0-.45,1.94,4.09,4.09,0,0,0,.45,2,3.18,3.18,0,0,0,1.21,1.28,3.28,3.28,0,0,0,1.67.44,3.34,3.34,0,0,0,1.68-.44,3.21,3.21,0,0,0,1.22-1.28,4.45,4.45,0,0,0,0-3.9Z"/><path d="M472.67,745.08V758.4H471V745.08Z"/><path d="M477.15,756.13l-2,4.84H474l1.31-4.84Z"/><path d="M493.34,749.49a3.93,3.93,0,0,0-1.52-1.7,4.25,4.25,0,0,0-2.3-.61,4.62,4.62,0,0,0-2.37.61,4.21,4.21,0,0,0-1.65,1.72,5.93,5.93,0,0,0,0,5.2,4.34,4.34,0,0,0,1.65,1.72,4.72,4.72,0,0,0,2.37.6,4.33,4.33,0,0,0,3-1.1,4.52,4.52,0,0,0,1.38-3h-5v-1.33h6.75v1.26a6.15,6.15,0,0,1-1,2.83,6,6,0,0,1-2.17,2,6.1,6.1,0,0,1-3,.74,6.37,6.37,0,0,1-3.18-.81,6,6,0,0,1-2.28-2.28,6.47,6.47,0,0,1-.84-3.29,6.54,6.54,0,0,1,.84-3.31,5.88,5.88,0,0,1,2.28-2.28,6.28,6.28,0,0,1,3.18-.82,6.42,6.42,0,0,1,3.54,1,5.71,5.71,0,0,1,2.24,2.79Z"/><path d="M499.63,757.93a4.55,4.55,0,0,1-1.77-1.79,5.57,5.57,0,0,1-.64-2.69,5.35,5.35,0,0,1,.66-2.68,4.64,4.64,0,0,1,1.79-1.78,5.51,5.51,0,0,1,5.08,0,4.57,4.57,0,0,1,1.79,1.78,5.72,5.72,0,0,1,0,5.37,4.74,4.74,0,0,1-1.82,1.79,5.28,5.28,0,0,1-2.56.63A5,5,0,0,1,499.63,757.93Zm4.17-1.23a3.1,3.1,0,0,0,1.25-1.24,4,4,0,0,0,.47-2,4,4,0,0,0-.47-2,3.07,3.07,0,0,0-1.22-1.23,3.41,3.41,0,0,0-1.64-.41,3.35,3.35,0,0,0-1.64.41,3,3,0,0,0-1.2,1.23,4.19,4.19,0,0,0-.45,2,4.32,4.32,0,0,0,.44,2,2.93,2.93,0,0,0,1.18,1.23,3.3,3.3,0,0,0,1.62.41A3.44,3.44,0,0,0,503.8,756.7Z"/><path d="M512.47,748.93a4.4,4.4,0,0,1,2.21-.56,4.62,4.62,0,0,1,2.4.63,4.46,4.46,0,0,1,1.67,1.77,6.1,6.1,0,0,1,0,5.32,4.48,4.48,0,0,1-4.07,2.47,4.43,4.43,0,0,1-2.24-.56,3.81,3.81,0,0,1-1.45-1.42v1.82h-1.63V745.08H511v5.29A3.87,3.87,0,0,1,512.47,748.93Zm4.77,2.56a3,3,0,0,0-1.21-1.26,3.38,3.38,0,0,0-1.69-.44,3.24,3.24,0,0,0-2.89,1.72,4.34,4.34,0,0,0,0,3.89,3.24,3.24,0,0,0,2.89,1.72,3.38,3.38,0,0,0,1.69-.44,3.18,3.18,0,0,0,1.21-1.28,4.09,4.09,0,0,0,.45-2A4,4,0,0,0,517.24,751.49Z"/><path d="M521.58,746.61a1.15,1.15,0,0,1,0-1.59,1.09,1.09,0,0,1,.79-.32,1.06,1.06,0,0,1,.77.32,1.17,1.17,0,0,1,0,1.59,1.06,1.06,0,0,1-.77.32A1.09,1.09,0,0,1,521.58,746.61Zm1.58,1.92v9.87h-1.63v-9.87Z"/><path d="M534.9,754.08H527a3.1,3.1,0,0,0,3.21,3.09,3,3,0,0,0,1.77-.49,2.58,2.58,0,0,0,1-1.32h1.76a4.27,4.27,0,0,1-1.58,2.31,4.81,4.81,0,0,1-2.95.89,5,5,0,0,1-2.51-.63,4.48,4.48,0,0,1-1.74-1.79,6.12,6.12,0,0,1,0-5.37,4.34,4.34,0,0,1,1.72-1.78,5.18,5.18,0,0,1,2.55-.62,5,5,0,0,1,2.48.61,4.24,4.24,0,0,1,1.67,1.69,5,5,0,0,1,.58,2.42C535,753.4,534.93,753.73,534.9,754.08Zm-2-3a2.65,2.65,0,0,0-1.13-1,3.42,3.42,0,0,0-1.57-.35,3,3,0,0,0-2.12.79,3.26,3.26,0,0,0-1,2.19h6.23A3.08,3.08,0,0,0,532.85,751.13Z"/><path d="M540,748.82a3.87,3.87,0,0,1,2-.47V750h-.44c-1.83,0-2.75,1-2.75,3v5.37h-1.64v-9.87h1.64v1.6A3.17,3.17,0,0,1,540,748.82Z"/><path d="M551.55,749.44a4.21,4.21,0,0,1,1.11,3.14v5.82H551v-5.58a3.17,3.17,0,0,0-.73-2.26,2.67,2.67,0,0,0-2-.78,2.7,2.7,0,0,0-2.06.8,3.32,3.32,0,0,0-.77,2.36v5.46h-1.63v-9.87h1.63v1.41a3.21,3.21,0,0,1,1.33-1.17,4.37,4.37,0,0,1,4.76.67Z"/><path d="M557.14,757.93a4.55,4.55,0,0,1-1.77-1.79,5.57,5.57,0,0,1-.64-2.69,5.35,5.35,0,0,1,.66-2.68,4.64,4.64,0,0,1,1.79-1.78,5.51,5.51,0,0,1,5.08,0,4.64,4.64,0,0,1,1.79,1.78,5.72,5.72,0,0,1,0,5.37,4.7,4.7,0,0,1-1.83,1.79,5.21,5.21,0,0,1-2.55.63A5,5,0,0,1,557.14,757.93Zm4.16-1.23a3.07,3.07,0,0,0,1.26-1.24,4,4,0,0,0,.47-2,4,4,0,0,0-.47-2,3.07,3.07,0,0,0-1.22-1.23,3.41,3.41,0,0,0-1.64-.41,3.35,3.35,0,0,0-1.64.41,3,3,0,0,0-1.2,1.23,4.83,4.83,0,0,0,0,4.05,2.93,2.93,0,0,0,1.18,1.23,3.3,3.3,0,0,0,1.62.41A3.37,3.37,0,0,0,561.3,756.7Z"/><path d="M571.67,750.77a4.43,4.43,0,0,1,1.69-1.77,4.62,4.62,0,0,1,2.4-.63,4.49,4.49,0,0,1,2.14.53,3.87,3.87,0,0,1,1.51,1.4v-5.22h1.66V758.4h-1.66v-1.86A3.78,3.78,0,0,1,578,758a4.25,4.25,0,0,1-2.23.57,4.51,4.51,0,0,1-4.07-2.47,6.1,6.1,0,0,1,0-5.32Zm7.29.73a3.22,3.22,0,0,0-1.21-1.27,3.35,3.35,0,0,0-1.69-.44,3.28,3.28,0,0,0-1.67.44,3.07,3.07,0,0,0-1.21,1.26,4,4,0,0,0-.45,1.94,4.09,4.09,0,0,0,.45,2,3.18,3.18,0,0,0,2.88,1.72,3.35,3.35,0,0,0,1.69-.44A3.18,3.18,0,0,0,579,755.4a4.45,4.45,0,0,0,0-3.9Z"/><path d="M592.79,754.08H584.9a3.1,3.1,0,0,0,3.21,3.09,3,3,0,0,0,1.77-.49,2.63,2.63,0,0,0,1-1.32h1.76a4.27,4.27,0,0,1-1.58,2.31,4.81,4.81,0,0,1-2.95.89,5,5,0,0,1-2.51-.63,4.48,4.48,0,0,1-1.74-1.79,6.12,6.12,0,0,1,0-5.37,4.34,4.34,0,0,1,1.72-1.78,5.18,5.18,0,0,1,2.55-.62,5,5,0,0,1,2.48.61,4.24,4.24,0,0,1,1.67,1.69,5,5,0,0,1,.58,2.42C592.84,753.4,592.82,753.73,592.79,754.08Zm-2.06-3a2.63,2.63,0,0,0-1.12-1,3.46,3.46,0,0,0-1.58-.35,3,3,0,0,0-2.11.79,3.22,3.22,0,0,0-1,2.19h6.23A3,3,0,0,0,590.73,751.13Z"/><path d="M600,748.81a6,6,0,0,1,2.26-2.29,6.26,6.26,0,0,1,3.18-.83,6.44,6.44,0,0,1,3.58,1,5.69,5.69,0,0,1,2.23,2.81h-2a4,4,0,0,0-1.5-1.75,4.35,4.35,0,0,0-2.35-.61,4.56,4.56,0,0,0-2.36.61,4.3,4.3,0,0,0-1.64,1.74,5.65,5.65,0,0,0-.59,2.64,5.58,5.58,0,0,0,.59,2.61,4.3,4.3,0,0,0,1.64,1.74,4.56,4.56,0,0,0,2.36.61,4.44,4.44,0,0,0,2.35-.6,3.89,3.89,0,0,0,1.5-1.74h2a5.62,5.62,0,0,1-2.23,2.78,6.43,6.43,0,0,1-3.58,1,6.35,6.35,0,0,1-3.18-.81,6,6,0,0,1-2.26-2.28,6.56,6.56,0,0,1-.83-3.29A6.64,6.64,0,0,1,600,748.81Z"/><path d="M620.61,748.83a3.38,3.38,0,0,1,1.42,1.43,4.88,4.88,0,0,1,.51,2.32v5.82h-1.62v-5.58a3.17,3.17,0,0,0-.74-2.26,2.63,2.63,0,0,0-2-.78,2.67,2.67,0,0,0-2.06.8,3.27,3.27,0,0,0-.77,2.36v5.46H613.7V745.08h1.64v4.86a3.12,3.12,0,0,1,1.34-1.17,4.3,4.3,0,0,1,1.92-.42A4.2,4.2,0,0,1,620.61,748.83Z"/><path d="M625.28,746.61a1.12,1.12,0,0,1,0-1.59,1.09,1.09,0,0,1,.79-.32,1,1,0,0,1,.76.32,1.15,1.15,0,0,1,0,1.59,1,1,0,0,1-.76.32A1.09,1.09,0,0,1,625.28,746.61Zm1.58,1.92v9.87h-1.64v-9.87Z"/><path d="M631.29,745.08V758.4h-1.64V745.08Z"/><path d="M643,754.08h-7.88a3.1,3.1,0,0,0,3.2,3.09,3.06,3.06,0,0,0,1.78-.49,2.69,2.69,0,0,0,1-1.32h1.76a4.27,4.27,0,0,1-1.58,2.31,4.84,4.84,0,0,1-3,.89,5,5,0,0,1-2.51-.63,4.45,4.45,0,0,1-1.73-1.79,6.12,6.12,0,0,1,0-5.37A4.34,4.34,0,0,1,635.8,749a5.11,5.11,0,0,1,2.54-.62,5,5,0,0,1,2.49.61,4.22,4.22,0,0,1,1.66,1.69,5,5,0,0,1,.59,2.42A8.74,8.74,0,0,1,643,754.08Zm-2-3a2.63,2.63,0,0,0-1.12-1,3.46,3.46,0,0,0-1.58-.35,3,3,0,0,0-2.11.79,3.18,3.18,0,0,0-1,2.19h6.23A3,3,0,0,0,641,751.13Z"/><path d="M645,758.18a1.07,1.07,0,0,1-.33-.79,1.13,1.13,0,0,1,1.12-1.12,1,1,0,0,1,.76.33,1.09,1.09,0,0,1,.32.79,1.1,1.1,0,0,1-.32.79,1,1,0,0,1-.76.32A1,1,0,0,1,645,758.18Z"/></svg>